<svg width="50" height="37" viewBox="0 0 50 37" fill="none" xmlns="http://www.w3.org/2000/svg">
<path fill-rule="evenodd" clip-rule="evenodd" d="M3.67638 0.143865C1.93933 0.565182 0.475441 2.07377 0.111838 3.81713C-0.0372792 4.53238 -0.0372792 31.8535 0.111838 32.5687C0.485874 34.3623 2.02164 35.8981 3.81525 36.2721C4.53366 36.4219 44.4822 36.4219 45.2006 36.2721C46.9942 35.8981 48.53 34.3623 48.904 32.5687C49.0531 31.8535 49.0531 4.53238 48.904 3.81713C48.53 2.02352 46.9942 0.487753 45.2006 0.113717C44.4473 -0.0433439 18.1032 -0.0351131 17.7577 0.12233C17.4834 0.247328 17.2339 0.648642 17.2339 0.96506C17.2339 1.24224 17.4787 1.69035 17.685 1.79094C17.7791 1.83679 23.9504 1.89584 31.3991 1.92216C44.9171 1.96992 44.9429 1.9704 45.3777 2.17159C46.0144 2.46618 46.4781 2.91573 46.7807 3.53182L47.0477 4.07565V18.1929V32.3102L46.7807 32.854C46.4781 33.4701 46.0144 33.9197 45.3777 34.2143L44.9421 34.4158H24.5079H4.07377L3.63819 34.2143C3.00143 33.9197 2.53771 33.4701 2.23517 32.854L1.96814 32.3102V18.1929V4.07565L2.23517 3.53182C2.53771 2.91573 3.00143 2.46618 3.63819 2.17159C4.04802 1.98198 4.27466 1.96715 7.47148 1.92188C9.34023 1.89546 10.9462 1.83641 11.0402 1.79066C11.2436 1.69179 11.4913 1.24358 11.4913 0.974344C11.4913 0.650747 11.2759 0.287623 10.9989 0.144344C10.6434 -0.0395155 4.43393 -0.0398988 3.67638 0.143865ZM13.8946 0.141569C13.0649 0.601457 13.412 1.92216 14.3626 1.92216C14.8476 1.92216 15.3197 1.45462 15.3197 0.974344C15.3197 0.255751 14.5256 -0.208253 13.8946 0.141569ZM12.7683 5.12645C10.8414 5.47618 9.26864 6.3146 7.85088 7.74805C6.61832 8.99411 5.8246 10.4101 5.39553 12.1284C5.16822 13.0387 5.16822 15.3075 5.39553 16.2178C5.8246 17.936 6.61832 19.3521 7.85088 20.5981C9.55117 22.3172 11.5362 23.2091 13.9319 23.3303C16.5822 23.4645 18.8955 22.5586 20.8218 20.6323C22.1325 19.3215 22.8857 17.9956 23.33 16.2168C23.557 15.3075 23.5569 13.0383 23.3297 12.1284C23.0915 11.1744 22.6452 10.112 22.138 9.29186C21.5368 8.31964 20.166 6.96447 19.1594 6.34724C17.2813 5.19555 14.8973 4.74016 12.7683 5.12645ZM16.229 7.13848C17.0604 7.36292 18.2443 7.97154 18.9304 8.52714C20.0754 9.45428 21.0162 10.905 21.4128 12.3546C21.6455 13.2051 21.6432 15.126 21.4085 15.9916C21.2041 16.7454 20.7045 17.8071 20.2926 18.363L19.9892 18.7725L19.7273 18.363C19.2812 17.6656 18.6272 17.0164 17.8796 16.5288L17.1624 16.0611L17.4279 15.6674C17.8524 15.0381 18.0274 14.2821 17.9819 13.274C17.9142 11.7688 17.252 10.7436 15.9236 10.087C15.2546 9.75634 15.1367 9.72935 14.3626 9.72935C13.5885 9.72935 13.4707 9.75634 12.8017 10.087C11.4732 10.7436 10.8111 11.7688 10.7433 13.274C10.6979 14.2821 10.8728 15.0381 11.2973 15.6674L11.5628 16.0611L10.8457 16.5288C10.0961 17.0177 9.44398 17.6658 8.99443 18.3687L8.72893 18.7838L8.42773 18.3687C7.04261 16.46 6.71595 13.6876 7.61534 11.474C8.5243 9.23712 10.4908 7.5865 12.885 7.05081C13.702 6.868 15.3911 6.91231 16.229 7.13848ZM28.634 9.71261C28.1559 9.97753 28.1519 10.0154 28.1483 14.3361C28.1459 17.2703 28.1762 18.444 28.2593 18.6263C28.5044 19.1643 28.2941 19.15 35.9932 19.15C43.6922 19.15 43.4819 19.1643 43.727 18.6263C43.8099 18.4445 43.8414 17.2682 43.8414 14.3552C43.8414 9.99486 43.834 9.92853 43.3177 9.69337C42.9334 9.51822 28.9516 9.53659 28.634 9.71261ZM41.9272 14.3645V17.2358H35.9932H30.0591V14.3645V11.4932H35.9932H41.9272V14.3645ZM15.348 11.9313C15.8214 12.2445 16.0805 12.8046 16.0833 13.5208C16.0858 14.1697 15.9707 14.5099 15.6247 14.8755C15.2488 15.2728 14.9121 15.4173 14.3626 15.4173C13.8132 15.4173 13.4764 15.2728 13.1006 14.8755C12.7521 14.5072 12.6398 14.1705 12.6398 13.4931C12.6398 12.5873 13.0844 11.9284 13.8641 11.6786C14.2698 11.5486 14.943 11.6633 15.348 11.9313ZM15.0326 17.43C15.8655 17.5599 16.9346 18.0941 17.5069 18.6664C18.0257 19.1852 18.518 19.961 18.4466 20.1471C18.376 20.3312 16.8892 21.0313 16.1942 21.2076C14.9222 21.5304 13.3541 21.4897 12.1867 21.1035C11.5219 20.8836 10.3321 20.2864 10.2781 20.1455C10.2072 19.9608 10.7015 19.1832 11.2184 18.6664C11.9298 17.955 13.1517 17.4248 14.2669 17.3434C14.3459 17.3377 14.6904 17.3766 15.0326 17.43ZM28.634 21.1978C27.9925 21.5533 28.0136 22.5656 28.6686 22.8641C28.8559 22.9494 30.7128 22.9784 35.9932 22.9784C41.2735 22.9784 43.1304 22.9494 43.3177 22.8641C43.592 22.7391 43.8414 22.3378 43.8414 22.0213C43.8414 21.7049 43.592 21.3036 43.3177 21.1786C42.9334 21.0035 28.9516 21.0218 28.634 21.1978ZM28.634 25.0263C27.8043 25.4862 28.1514 26.8069 29.102 26.8069C29.587 26.8069 30.0591 26.3393 30.0591 25.859C30.0591 25.1404 29.265 24.6764 28.634 25.0263ZM32.4624 25.0263C31.6327 25.4862 31.9798 26.8069 32.9304 26.8069C33.4154 26.8069 33.8875 26.3393 33.8875 25.859C33.8875 25.1404 33.0934 24.6764 32.4624 25.0263ZM36.2908 25.0263C35.6494 25.3817 35.6704 26.3941 36.3255 26.6925C36.7201 26.8723 42.9968 26.8526 43.349 26.6705C43.9859 26.341 43.9859 25.3585 43.349 25.029C42.9768 24.8366 36.6376 24.834 36.2908 25.0263ZM8.0936 25.3649C7.73823 25.5124 7.52365 25.8455 7.52365 26.25C7.52365 26.5634 7.58146 26.6866 7.83413 26.9123L8.14452 27.1897H14.3626H20.5807L20.8911 26.9123C21.3101 26.5381 21.33 25.9782 20.9384 25.5866L20.6752 25.3234L14.4802 25.3044C11.0728 25.294 8.19888 25.3212 8.0936 25.3649ZM9.62497 29.193C9.26931 29.3412 9.05501 29.6741 9.05501 30.0784C9.05501 30.3918 9.11282 30.5151 9.3655 30.7407L9.67589 31.0181H14.3626H19.0494L19.3598 30.7407C19.7787 30.3665 19.7986 29.8066 19.407 29.415L19.1439 29.1518L14.4802 29.1325C11.9151 29.1219 9.73025 29.1492 9.62497 29.193Z" fill="white"/>
</svg>
