<svg class="svg-icon" style="width: 1em; height: 1em;vertical-align: middle;fill: currentColor;overflow: hidden;" viewBox="0 0 1024 1024" version="1.1" xmlns="http://www.w3.org/2000/svg"><path d="M976 256 784 256c-26.512 0-48 21.488-48 48 0 26.512 21.488 48 48 48l76.112 0L654.064 558.064l-27.808 27.808-4.768 4.768L560 652.128 337.936 430.064C329.248 421.376 317.264 416 304 416c-13.248 0-25.248 5.376-33.936 14.064l-256 256C5.376 694.752 0 706.752 0 720c0 26.512 21.488 48 48 48 13.248 0 25.248-5.376 33.936-14.064L304 531.888l222.064 222.064C534.752 762.624 546.752 768 560 768c13.248 0 25.248-5.376 33.936-14.064l95.424-95.44 0 0L928 419.888 928 496c0 26.512 21.488 48 48 48 26.512 0 48-21.488 48-48L1024 304C1024 277.488 1002.512 256 976 256z"  /></svg>