<svg width="153" height="135" viewBox="0 0 153 135" fill="none" xmlns="http://www.w3.org/2000/svg">
<path d="M66.9237 129.69L65.4386 132.859L66.9236 129.689L64.7051 128.65L33.9426 97.9761L31.4713 100.455L33.9426 97.9761C21.4888 85.5583 13.6956 77.7458 8.9958 72.9359C6.64067 70.5256 5.09377 68.9013 4.13409 67.8411C4.02963 67.7257 3.93412 67.6191 3.84696 67.521C4.2591 67.0805 4.81753 66.4946 5.51419 65.7718C7.13078 64.0947 9.44429 61.7296 12.2875 58.8466C17.9715 53.0831 25.7461 45.2762 34.238 36.8185L64.7069 6.4723L66.9303 5.4248C66.9303 5.42479 66.9303 5.42479 66.9303 5.42478C69.0229 4.43893 70.2895 4.04795 73.1893 3.56392C74.085 3.41442 75.8974 3.51233 78.0978 3.98638C80.2437 4.44867 82.2359 5.15576 83.4529 5.85638L83.4531 5.85649C86.6394 7.69049 89.7868 11.4848 91.0596 15.0803C92.0699 17.9346 92.2284 22.2876 91.4344 25.1728L91.4344 25.1729C90.8335 27.3567 90.442 28.3623 89.4691 29.7138C88.3411 31.2809 86.444 33.285 82.5516 37.212L75.5408 44.2849L69.6308 50.2472L78.0259 50.2488L106.218 50.2543C106.888 50.2545 107.543 50.2546 108.184 50.2547C122.724 50.2572 129.778 50.2584 133.784 50.5192C135.831 50.6524 136.863 50.8432 137.592 51.0616C138.29 51.2712 138.823 51.5315 139.936 52.0761C140.024 52.1194 140.117 52.1645 140.213 52.2116L141.635 49.3007L140.213 52.2116C144.115 54.1175 147.393 57.9082 149.077 62.8387C149.346 63.6257 149.5 64.4883 149.5 67.5608C149.5 70.6334 149.346 71.4959 149.077 72.283C147.397 77.2031 144.141 80.9702 140.194 82.9106L140.194 82.9107C140.099 82.9571 140.009 83.0017 139.922 83.0445C138.812 83.591 138.285 83.8505 137.59 84.0596C136.867 84.2775 135.837 84.4686 133.791 84.602C129.784 84.8632 122.723 84.8644 108.17 84.867C107.534 84.8671 106.883 84.8672 106.218 84.8673L78.0259 84.8728L69.6308 84.8745L75.5408 90.8368L82.5516 97.9096C86.4153 101.808 88.3159 103.816 89.4473 105.376C90.4236 106.721 90.8137 107.707 91.3935 109.793L91.3935 109.793C92.0486 112.15 92.1173 115.957 91.5343 118.424C90.9164 121.037 89.1392 124.194 86.9277 126.424L89.2669 128.744L86.9277 126.424C83.5626 129.816 79.5676 131.49 74.8882 131.5C73.1339 131.504 71.9519 131.397 70.8601 131.149C69.7616 130.901 68.6015 130.476 66.9237 129.69Z" stroke="#B388FF" stroke-width="7"/>
</svg>
