<?xml version="1.0" encoding="iso-8859-1"?>
<!-- Uploaded to: SVG Repo, www.svgrepo.com, Generator: SVG Repo Mixer Tools -->
<!DOCTYPE svg PUBLIC "-//W3C//DTD SVG 1.1//EN" "http://www.w3.org/Graphics/SVG/1.1/DTD/svg11.dtd">
<svg fill="#000000" height="800px" width="800px" version="1.1" id="Capa_1" xmlns="http://www.w3.org/2000/svg" xmlns:xlink="http://www.w3.org/1999/xlink" 
	 viewBox="0 0 196.434 196.434" xml:space="preserve">
<path d="M184.684,175.01H11.75C5.271,175.01,0,169.738,0,163.26V59.849c0-6.479,5.271-11.75,11.75-11.75h12.175v-7.503
	c0-1.381,1.119-2.5,2.5-2.5h18.964c1.381,0,2.5,1.119,2.5,2.5v7.503h18.653V37.758c0-9.007,7.327-16.334,16.333-16.334h30.684
	c9.007,0,16.334,7.327,16.334,16.334v10.341h18.652v-7.503c0-1.381,1.119-2.5,2.5-2.5h18.964c1.381,0,2.5,1.119,2.5,2.5v7.503
	h12.175c6.479,0,11.75,5.271,11.75,11.75V163.26C196.434,169.738,191.162,175.01,184.684,175.01z M11.75,53.099
	c-3.722,0-6.75,3.028-6.75,6.75V163.26c0,3.722,3.028,6.75,6.75,6.75h172.934c3.722,0,6.75-3.028,6.75-6.75V59.849
	c0-3.722-3.028-6.75-6.75-6.75H11.75z M153.545,48.099h13.964v-5.003h-13.964V48.099z M71.542,48.099h53.351V37.758
	c0-6.25-5.084-11.334-11.334-11.334H82.875c-6.249,0-11.333,5.084-11.333,11.334V48.099z M28.925,48.099h13.964v-5.003H28.925
	V48.099z"/>
</svg>