<?xml version="1.0" standalone="no"?>
<!DOCTYPE svg PUBLIC "-//W3C//DTD SVG 20010904//EN"
 "http://www.w3.org/TR/2001/REC-SVG-20010904/DTD/svg10.dtd">
<svg version="1.0" xmlns="http://www.w3.org/2000/svg"
 width="48.000000pt" height="48.000000pt" viewBox="0 0 48.000000 48.000000"
 preserveAspectRatio="xMidYMid meet">

<g transform="translate(0.000000,48.000000) scale(0.100000,-0.100000)"
fill="#000000" stroke="none">
<path d="M178 469 c-10 -5 -18 -16 -18 -22 0 -7 -13 -20 -29 -30 -43 -25 -90
-107 -62 -107 5 0 14 14 21 30 7 17 24 39 37 50 24 19 24 19 44 -1 14 -14 33
-19 69 -19 36 0 55 5 69 19 20 20 20 20 44 1 13 -11 30 -33 37 -50 7 -16 16
-30 21 -30 28 0 -19 82 -62 107 -16 10 -29 23 -29 30 0 30 -102 46 -142 22z
m122 -44 c0 -24 -3 -25 -60 -25 -57 0 -60 1 -60 25 0 24 3 25 60 25 57 0 60
-1 60 -25z"/>
<path d="M48 263 c-28 -7 -30 -33 -8 -132 30 -132 28 -131 200 -131 172 0 170
-1 200 131 22 103 20 124 -13 133 -25 7 -353 6 -379 -1z m392 -35 c0 -7 -11
-53 -23 -103 l-23 -90 -154 0 -154 0 -23 90 c-12 50 -23 96 -23 103 0 9 47 12
200 12 153 0 200 -3 200 -12z"/>
<path d="M140 135 c0 -37 4 -65 10 -65 6 0 10 28 10 65 0 37 -4 65 -10 65 -6
0 -10 -28 -10 -65z"/>
<path d="M230 135 c0 -37 4 -65 10 -65 6 0 10 28 10 65 0 37 -4 65 -10 65 -6
0 -10 -28 -10 -65z"/>
<path d="M320 135 c0 -37 4 -65 10 -65 6 0 10 28 10 65 0 37 -4 65 -10 65 -6
0 -10 -28 -10 -65z"/>
</g>
</svg>
