<?xml version="1.0" encoding="utf-8"?>
<!-- Generator: Adobe Illustrator 19.0.0, SVG Export Plug-In . SVG Version: 6.00 Build 0)  -->
<svg version="1.1" id="Layer_1" xmlns="http://www.w3.org/2000/svg" xmlns:xlink="http://www.w3.org/1999/xlink" x="0px" y="0px"
	 viewBox="0 0 512 512" style="enable-background:new 0 0 512 512;" xml:space="preserve">
<g id="XMLID_2_">
	<path id="XMLID_10_" d="M480.3,224.8c8.4,0,16.8,2.8,22.3,9.3c5.6,6.5,9.3,14,9.3,22.3c0,8.4-2.8,16.8-9.3,22.3
		c-6.5,5.6-14,9.3-22.3,9.3h-3.7l-28.9,165.7c-0.9,7.4-4.7,14-11.2,18.6s-13,7.4-20.5,7.4H95.9c-7.4,0-14.9-2.8-20.5-7.4
		c-5.6-4.7-9.3-11.2-11.2-18.6L35.4,288.1h-3.7c-8.4,0-16.8-2.8-22.3-9.3S0,264.8,0,256.5s2.8-16.8,9.3-22.3
		c6.5-5.6,14-9.3,22.3-9.3C31.7,224.8,480.3,224.8,480.3,224.8z M121,424c4.7,0,8.4-1.9,11.2-5.6c2.8-3.7,4.7-7.4,3.7-11.2
		L128.5,303c0-4.7-1.9-8.4-5.6-11.2s-7.4-4.7-11.2-3.7c-4.7,0-8.4,1.9-11.2,5.6c-2.8,3.7-4.7,7.4-3.7,11.2l8.4,104.3
		c0,3.7,1.9,7.4,5.6,10.2c2.8,2.8,6.5,4.7,11.2,4.7C121.9,424,121,424,121,424z M224.3,408.2V304.9c0-4.7-1.9-8.4-4.7-11.2
		c-2.8-2.8-6.5-4.7-11.2-4.7c-4.7,0-8.4,1.9-11.2,4.7s-4.7,6.5-4.7,11.2v104.3c0,4.7,1.9,8.4,4.7,11.2c2.8,2.8,6.5,4.7,11.2,4.7
		c4.7,0,8.4-1.9,11.2-4.7C222.5,417.5,224.3,412.9,224.3,408.2z M320.2,408.2V304.9c0-4.7-1.9-8.4-4.7-11.2
		c-2.8-2.8-6.5-4.7-11.2-4.7s-8.4,1.9-11.2,4.7c-2.8,2.8-4.7,6.5-4.7,11.2v104.3c0,4.7,1.9,8.4,4.7,11.2c2.8,2.8,6.5,4.7,11.2,4.7
		s8.4-1.9,11.2-4.7C318.4,417.5,320.2,412.9,320.2,408.2z M407.7,410.1l8.4-104.3c0-4.7-0.9-8.4-3.7-11.2s-6.5-5.6-11.2-5.6
		c-4.7,0-8.4,0.9-11.2,3.7s-5.6,6.5-5.6,11.2l-8.4,104.3c0,4.7,0.9,8.4,3.7,11.2s6.5,4.7,11.2,4.7h0.9c3.7,0,7.4-1.9,11.2-4.7
		C405.9,417.5,407.7,413.8,407.7,410.1z M119.2,105.7L95.9,209H63.3L88.4,98.2c2.8-14.9,10.2-27,22.3-36.3c12.1-9.3,25.1-14,40-14
		h41.9c0-4.7,1.9-8.4,4.7-11.2c2.8-2.8,6.5-4.7,11.2-4.7h95.9c4.7,0,8.4,1.9,11.2,4.7c2.8,2.8,4.7,6.5,4.7,11.2h41.9
		c14.9,0,27.9,4.7,40,14s18.6,21.4,22.3,36.3l25.1,109.8H417l-23.3-103.3c-1.9-7.4-5.6-13-11.2-17.7c-5.6-4.7-12.1-7.4-19.5-7.4
		h-41.9c0,4.7-1.9,8.4-4.7,11.2c-2.8,2.8-6.5,4.7-11.2,4.7h-97.7c-4.7,0-8.4-1.9-11.2-4.7c-2.8-2.8-4.7-6.5-4.7-11.2h-41.9
		c-7.4,0-14,2.8-19.5,7.4C124.7,91.7,121,98.2,119.2,105.7z"/>
</g>
</svg>
