<svg width="42" height="41" viewBox="0 0 42 41" fill="none" xmlns="http://www.w3.org/2000/svg">
<path fill-rule="evenodd" clip-rule="evenodd" d="M19.936 0.122725C19.7849 0.1913 15.2659 4.64957 9.89374 10.03C-0.727459 20.6674 -0.0962792 19.9733 0.0659562 20.838C0.150461 21.2887 0.698143 21.8364 1.14878 21.9209C2.01232 22.0829 1.37373 22.6606 11.3527 12.6888L20.5311 3.51703L29.7094 12.6888C39.6884 22.6606 39.0498 22.0829 39.9133 21.9209C40.364 21.8364 40.9117 21.2887 40.9962 20.838C41.1584 19.9733 41.7896 20.6674 31.1684 10.0299C25.4484 4.30093 21.2788 0.194047 21.1062 0.119063C20.7383 -0.0409748 20.2935 -0.0396017 19.936 0.122725ZM5.28258 23.5526C4.91251 23.7206 4.52926 24.1876 4.46169 24.5532C4.43166 24.7154 4.42205 27.1346 4.44036 29.9294C4.47772 35.6418 4.45217 35.4047 5.19596 36.9333C5.91 38.4008 7.07687 39.5541 8.57599 40.2741C10.1069 41.0092 9.28051 40.9617 20.5311 40.9617C31.8463 40.9617 30.965 41.0157 32.575 40.2251C34.461 39.299 35.8347 37.6206 36.4306 35.5142C36.5852 34.9676 36.599 34.4882 36.599 29.6386C36.599 24.4481 36.5958 24.3538 36.4102 24.1052C36.0516 23.6247 35.7589 23.4747 35.1799 23.4747C34.601 23.4747 34.3083 23.6246 33.9495 24.105C33.7654 24.3514 33.7597 24.4858 33.715 29.5011C33.6707 34.48 33.6629 34.661 33.4728 35.1634C33.0061 36.3962 32.0335 37.3688 30.8006 37.8356C30.284 38.0311 30.2393 38.0321 20.8515 38.0595C14.098 38.0793 11.2654 38.0577 10.872 37.9833C10.24 37.8638 9.4053 37.4674 8.89259 37.0434C8.41733 36.6502 7.83339 35.8088 7.59086 35.1678C7.39878 34.6598 7.39154 34.4928 7.34714 29.5011C7.30246 24.4858 7.29669 24.3514 7.11258 24.105C7.00875 23.966 6.81612 23.7718 6.68456 23.6736C6.38151 23.4474 5.65319 23.3846 5.28258 23.5526Z" fill="white"/>
</svg>
