<svg width="32" height="32" viewBox="0 0 32 32" fill="none" xmlns="http://www.w3.org/2000/svg">
<path fill-rule="evenodd" clip-rule="evenodd" d="M15.4357 0.0573826C14.7776 0.186883 14.5417 0.36182 13.0599 1.81888C10.9852 3.85901 11.0211 3.84413 8.081 3.88244C6.25787 3.90619 6.05 3.91988 5.73062 4.03682C5.27475 4.20369 4.95337 4.41357 4.63894 4.74969C4.3165 5.09432 4.19581 5.29019 4.0345 5.73107C3.91637 6.05388 3.903 6.25613 3.87919 8.08426C3.84087 11.0244 3.85575 10.9884 1.81562 13.0631C0.29725 14.6073 0.1675 14.7911 0.0361875 15.5837C-0.0120625 15.8746 -0.0120625 16.1064 0.0361875 16.3973C0.1675 17.1899 0.29725 17.3738 1.81562 18.9179C3.85575 20.9926 3.84087 20.9566 3.87919 23.8968C3.90294 25.7199 3.91662 25.9277 4.03356 26.2471C4.3375 27.0772 4.96794 27.6994 5.7775 27.9683C6.02325 28.0499 6.46169 28.0741 8.081 28.0958C11.0101 28.135 10.9899 28.1266 13.0599 30.1621C14.604 31.6805 14.7878 31.8102 15.5804 31.9416C16.0837 32.0249 16.6512 31.9426 17.1512 31.7137C17.4328 31.5848 17.7734 31.2852 18.8851 30.1885C20.2927 28.7998 20.5594 28.5917 21.2922 28.3101C21.6961 28.155 21.7561 28.1503 23.7997 28.1101C25.4757 28.0773 25.9541 28.0489 26.197 27.9683C27.0066 27.6994 27.637 27.0773 27.9409 26.2471C28.0572 25.9296 28.0729 25.7005 28.1086 23.803C28.1471 21.7572 28.1516 21.6998 28.3069 21.2955C28.5884 20.5626 28.7966 20.2959 30.1852 18.8883C31.2819 17.7767 31.5816 17.4361 31.7105 17.1545C31.9394 16.6545 32.0217 16.087 31.9383 15.5837C31.807 14.7911 31.6772 14.6073 30.1589 13.0631C28.1226 10.9923 28.1309 11.0125 28.0943 8.08426C28.0714 6.25457 28.0582 6.05419 27.94 5.73107C27.6392 4.90913 27.068 4.33857 26.2439 4.03682C25.9263 3.92051 25.6972 3.90482 23.7997 3.86913C21.7539 3.83069 21.6965 3.82613 21.2922 3.67088C20.5594 3.38932 20.2927 3.18119 18.8851 1.79251C17.4116 0.338883 17.2055 0.189195 16.4897 0.0535076C16.1076 -0.0189923 15.8185 -0.0179298 15.4357 0.0573826ZM18.9409 16.9431L13.8939 21.9904L10.9406 19.0376L7.98725 16.0848L8.92468 15.1473L9.86212 14.2099L11.8624 16.2094L13.8626 18.2088L17.9714 14.1L22.0802 9.99119L23.0341 10.9435L23.9879 11.8959L18.9409 16.9431Z" fill="#B388FF"/>
</svg>
