<svg xmlns="http://www.w3.org/2000/svg" fill="none" viewBox="0 0 24 24" id="Task-Alt--Streamline-Outlined-Material" height="24" width="24"><desc>Task Alt Streamline Icon: https://streamlinehq.com</desc><path fill="#000000" d="M12 22c-1.41665 0 -2.73335 -0.25415 -3.95 -0.7625s-2.275 -1.2125 -3.175 -2.1125c-0.9 -0.9 -1.604165 -1.95835 -2.1125 -3.175C2.254165 14.73335 2 13.41665 2 12c0 -1.4 0.254165 -2.70835 0.7625 -3.925S3.975 5.8 4.875 4.9c0.9 -0.9 1.95835 -1.608335 3.175 -2.125C9.26665 2.258335 10.58335 2 12 2c1.25 0 2.41665 0.2 3.5 0.6 1.08335 0.4 2.05835 0.95 2.925 1.65l-1.075 1.075c-0.73335 -0.583335 -1.55 -1.033335 -2.45 -1.35C14 3.658335 13.03335 3.5 12 3.5c-2.41665 0 -4.4375 0.8125 -6.0625 2.4375S3.5 9.58335 3.5 12s0.8125 4.4375 2.4375 6.0625S9.58335 20.5 12 20.5s4.4375 -0.8125 6.0625 -2.4375S20.5 14.41665 20.5 12c0 -0.5 -0.0375 -0.9875 -0.1125 -1.4625 -0.075 -0.475 -0.1875 -0.9375 -0.3375 -1.3875l1.15 -1.15c0.26665 0.61665 0.46665 1.25835 0.6 1.925 0.13335 0.66665 0.2 1.35835 0.2 2.075 0 1.41665 -0.25835 2.73335 -0.775 3.95S20 18.225 19.1 19.125c-0.9 0.9 -1.95835 1.60415 -3.175 2.1125C14.70835 21.74585 13.4 22 12 22Zm-1.475 -5.45 -4.125 -4.15 1.125 -1.125 3 3 10.35 -10.35 1.15 1.125 -11.5 11.5Z" stroke-width="0.5"></path></svg>