<svg xmlns="http://www.w3.org/2000/svg" fill="none" viewBox="0 0 24 24" id="Download-Done--Streamline-Rounded-Material" height="24" width="24"><desc>Download Done Streamline Icon: https://streamlinehq.com</desc><path fill="#000000" d="M9.5 13.44995 18.425 4.524925c0.15 -0.15 0.325 -0.220835 0.525 -0.2125 0.2 0.008335 0.375 0.08617 0.525 0.2335 0.15 0.147335 0.225 0.322335 0.225 0.525025 0 0.20265 -0.075 0.379 -0.225 0.529l-9.45 9.45c-0.15 0.15 -0.325 0.225 -0.525 0.225s-0.375 -0.075 -0.525 -0.225l-4.450015 -4.45c-0.15 -0.1467 -0.22083 -0.32085 -0.2125 -0.5225 0.008335 -0.2017 0.08617 -0.3775 0.2335 -0.5275 0.147335 -0.15 0.322335 -0.225 0.525015 -0.225 0.20265 0 0.379 0.075 0.529 0.225l3.9 3.9Zm-3.75 6.55c-0.2125 0 -0.3906 -0.07235 -0.53425 -0.217 -0.14385 -0.1445 -0.215765 -0.3237 -0.215765 -0.5375 0 -0.2137 0.071915 -0.39135 0.215765 -0.533 0.14365 -0.1417 0.32175 -0.2125 0.53425 -0.2125h12.5c0.2125 0 0.39065 0.0723 0.5345 0.217 0.14365 0.1445 0.2155 0.32365 0.2155 0.5375 0 0.21365 -0.07185 0.3913 -0.2155 0.533 -0.14385 0.14165 -0.322 0.2125 -0.5345 0.2125h-12.5Z" stroke-width="0.5"></path></svg>