<svg width="47" height="64" viewBox="0 0 47 64" fill="none" xmlns="http://www.w3.org/2000/svg">
<path fill-rule="evenodd" clip-rule="evenodd" d="M20.635 1.50191L18.309 2.99428L15.6625 2.66791C14.207 2.48841 12.9419 2.37003 12.8512 2.40478C12.7606 2.43966 12.0515 3.50266 11.2755 4.76703L9.8645 7.06603L7.217 7.97391L4.5695 8.88178L4.28675 11.6549L4.00387 14.4279L2.002 16.3654L0 18.3029L0.954375 20.9407L1.90888 23.5783L0.967125 26.1902L0.0255003 28.802L2.01562 30.8024L4.00575 32.8029L4.27912 35.4904C4.4295 36.9685 4.58825 38.2158 4.63187 38.262C4.6755 38.3084 5.86425 38.7361 7.27362 39.2128L9.83612 40.0794L11.2736 42.4007C12.0642 43.6774 12.7392 44.7495 12.7736 44.7833C12.8081 44.817 13.9331 44.7097 15.2736 44.5445C16.6142 44.3794 17.875 44.2434 18.0754 44.2424C18.3286 44.241 19.1219 44.6782 20.6806 45.6779C21.9132 46.4685 22.9685 47.1154 23.0256 47.1154C23.0829 47.1154 24.1435 46.4685 25.3826 45.6779C27.1064 44.578 27.7325 44.2413 28.0484 44.2439C28.2754 44.2458 29.5299 44.3813 30.8361 44.545C32.1424 44.7087 33.2377 44.8164 33.2702 44.7844C33.3027 44.7525 33.9777 43.6793 34.7702 42.3995L36.2111 40.0727L38.7654 39.221C40.1702 38.7525 41.359 38.3263 41.4072 38.2737C41.4554 38.221 41.6177 36.9685 41.7681 35.4904L42.0415 32.8029L44.0316 30.8024L46.0217 28.802L45.0801 26.1902L44.1384 23.5783L45.0929 20.9407L46.0472 18.3029L44.0452 16.3654L42.0434 14.4279L41.7604 11.6539L41.4775 8.87991L40.1567 8.42328C39.4304 8.17216 38.2386 7.76328 37.5084 7.51453L36.1805 7.06241L34.7707 4.76528C33.9952 3.50178 33.2906 2.44103 33.2046 2.40816C33.1187 2.37516 31.8541 2.49416 30.3942 2.67253L27.7401 2.99703L25.3885 1.49366C24.0951 0.666907 23.0199 -0.00534299 22.999 3.20091e-05C22.9781 0.00528201 21.9144 0.681157 20.635 1.50191ZM25.9299 7.67591C30.7702 8.52003 35.1959 11.8363 37.4429 16.3029C38.6265 18.6555 39.1472 20.8934 39.1481 23.6303C39.1495 27.8145 37.6277 31.6402 34.7546 34.6753C32.5395 37.0155 29.9422 38.5145 26.691 39.3295C25.4717 39.6352 25.1109 39.6695 23.0861 39.6728C20.6707 39.6768 20.1239 39.5995 18.1157 38.9704C14.1702 37.7341 10.6757 34.8155 8.73562 31.1359C8.0315 29.8005 7.35062 27.8048 7.09187 26.3178C6.84237 24.8848 6.84375 22.2492 7.0945 20.8029C8.31375 13.7725 14.0726 8.36728 21.2736 7.49453C22.4382 7.35341 24.5527 7.43578 25.9299 7.67591ZM21.4611 11.2588C19.6257 11.4932 17.8521 12.1493 16.2382 13.1909C15.2534 13.8264 13.4191 15.5938 12.8059 16.4979C12.1666 17.4404 11.4329 18.9977 11.0687 20.1843C10.7519 21.2169 10.7249 21.471 10.7182 23.4904C10.7097 26.0968 10.9126 27.053 11.8986 29.0529C14.7075 34.7504 21.3194 37.4033 27.3089 35.236C31.4355 33.7429 34.5744 29.9375 35.2781 25.5747C35.5186 24.0842 35.3752 21.5705 34.9717 20.2052C33.5267 15.3148 29.4592 11.8669 24.4019 11.2455C23.2004 11.0979 22.7031 11.1002 21.4611 11.2588ZM5.83762 43.8854C5.65662 44.4588 4.522 48.0114 3.31625 51.7801C2.1105 55.5489 1.1535 58.6619 1.1895 58.698C1.22563 58.734 3.2855 58.6461 5.767 58.5028L10.279 58.2421L13.8641 61.1118C15.8359 62.6902 17.458 63.9695 17.4687 63.9548C17.4795 63.94 18.4287 60.9813 19.5784 57.3798C21.2955 52.0001 21.6389 50.8046 21.5022 50.6805C21.4109 50.5973 20.4667 49.976 19.404 49.2999L17.472 48.0705L14.154 48.4649C12.3292 48.6818 10.8194 48.8184 10.7989 48.7685C10.7785 48.7187 10.0114 47.4685 9.09425 45.9904C7.45487 43.3484 7.25587 43.113 6.50137 42.9259C6.17537 42.845 6.158 42.87 5.83762 43.8854ZM39.1744 43.0228C38.686 43.1793 38.7247 43.1263 36.7726 46.3029C35.9276 47.6779 35.2279 48.815 35.2176 48.8298C35.2074 48.8447 33.8517 48.6908 32.205 48.4879C30.5584 48.285 29.0561 48.1182 28.8669 48.1171C28.6407 48.116 27.8145 48.5694 26.4606 49.4375C25.3265 50.1648 24.3986 50.7899 24.3986 50.8268C24.3986 50.8932 28.541 63.9031 28.5785 63.9548C28.5892 63.9695 30.2114 62.6902 32.1831 61.1118L35.7682 58.2421L40.2867 58.4963C42.7719 58.636 44.8311 58.7245 44.8629 58.6928C44.8946 58.6611 43.9336 55.5476 42.7275 51.7739C41.5212 48.0002 40.389 44.4519 40.2111 43.889C39.875 42.825 39.852 42.8058 39.1744 43.0228Z" fill="white"/>
</svg>
