<svg class="svg-icon" style="width: 1em; height: 1em;vertical-align: middle;fill: currentColor;overflow: hidden;" viewBox="0 0 1024 1024" version="1.1" xmlns="http://www.w3.org/2000/svg"><path d="M809.984 578.56c-1.024-4.096-1.024-9.216 2.048-12.288C829.44 534.528 839.68 498.688 839.68 460.8c0-118.784-101.376-215.04-225.28-215.04-53.248 0-102.4 18.432-141.312 48.128C601.088 321.536 696.32 432.128 696.32 563.2c0 36.864-7.168 72.704-21.504 104.448 20.48-5.12 39.936-13.312 58.368-24.576 4.096-2.048 8.192-3.072 12.288-1.024l65.536 23.552c11.264 4.096 22.528-7.168 19.456-19.456l-20.48-67.584zM409.6 348.16c-123.904 0-225.28 96.256-225.28 215.04 0 37.888 10.24 73.728 28.672 105.472 2.048 4.096 3.072 8.192 2.048 12.288l-21.504 68.608c-4.096 12.288 7.168 23.552 19.456 19.456l65.536-23.552c4.096-1.024 9.216-1.024 12.288 1.024 34.816 20.48 74.752 31.744 118.784 31.744 123.904 0 225.28-96.256 225.28-215.04s-101.376-215.04-225.28-215.04zM286.72 604.16c-22.528 0-40.96-18.432-40.96-40.96s18.432-40.96 40.96-40.96 40.96 18.432 40.96 40.96-18.432 40.96-40.96 40.96z m122.88 0c-22.528 0-40.96-18.432-40.96-40.96s18.432-40.96 40.96-40.96 40.96 18.432 40.96 40.96-18.432 40.96-40.96 40.96z m122.88 0c-22.528 0-40.96-18.432-40.96-40.96s18.432-40.96 40.96-40.96 40.96 18.432 40.96 40.96-18.432 40.96-40.96 40.96z"  /></svg>