<svg width="57" height="56" viewBox="0 0 57 56" fill="none" xmlns="http://www.w3.org/2000/svg">
<path fill-rule="evenodd" clip-rule="evenodd" d="M25.2081 0.19209C17.71 1.20472 11.383 5.80809 8.12347 12.6225C6.73735 15.5203 6.02397 18.8308 6.0216 22.3761L6.0206 23.9421L5.1556 24.0783C2.7736 24.4535 0.821469 26.2251 0.211969 28.5652C-0.0706563 29.6503 -0.0706563 40.3446 0.211969 41.4297C0.798344 43.681 2.68584 45.463 4.92147 45.8762C5.3521 45.9559 7.39785 45.9926 10.1891 45.9707C14.574 45.9364 14.7661 45.9249 15.0976 45.6772C15.2873 45.5355 15.5586 45.2642 15.7003 45.0744C15.9555 44.7326 15.9581 44.6314 15.9581 34.9975C15.9581 25.3636 15.9555 25.2623 15.7003 24.9206C15.0815 24.0916 14.9778 24.0636 12.3691 24.021L9.98522 23.982L10.0585 21.771C10.1367 19.408 10.3517 18.0943 10.9523 16.31C12.7428 10.9898 17.014 6.71359 22.3102 4.93822C24.2985 4.27172 25.5329 4.07972 27.8956 4.06947C30.2829 4.05909 31.208 4.18109 33.1894 4.76772C38.6834 6.39422 43.2449 10.8131 45.0794 16.2857C45.6781 18.0717 45.8999 19.4206 45.9811 21.771L46.0576 23.982L43.6729 24.021C41.0634 24.0636 40.9597 24.0916 40.3409 24.9206C40.0857 25.2623 40.0831 25.3636 40.0831 34.9975C40.0831 44.6314 40.0857 44.7326 40.3409 45.0744C40.9596 45.9031 41.0639 45.9314 43.6685 45.974L46.0487 46.0129L45.9707 46.4115C45.8789 46.8811 45.5762 47.3197 45.0976 47.6772C44.7662 47.9249 44.5737 47.9364 40.216 47.9706L35.6792 48.0062L35.3379 47.3085C34.6129 45.8267 33.111 44.6207 31.4529 44.1889C30.4229 43.9206 25.6317 43.9171 24.6072 44.184C22.4396 44.7486 20.7736 46.4092 20.212 48.5652C19.3972 51.6931 21.3777 54.9699 24.5884 55.8061C25.1382 55.9494 26.0017 55.9975 28.0206 55.9975C30.9465 55.9975 31.6049 55.9007 32.8005 55.2949C33.6705 54.854 34.8919 53.6066 35.3251 52.7162L35.675 51.9975H40.0807C42.5547 51.9975 44.7815 51.9415 45.1592 51.8699C47.5612 51.4144 49.5462 49.349 49.9232 46.9131L50.0591 46.036L50.9149 45.9035C53.3634 45.5245 55.453 43.5246 55.8957 41.1367C55.9667 40.754 56.0206 38.1042 56.0206 34.9975C56.0206 31.8907 55.9667 29.241 55.8957 28.8582C55.4519 26.4645 53.3591 24.4678 50.8856 24.0783L50.0206 23.9421L50.0196 22.3761C50.0171 18.656 49.2495 15.2918 47.6994 12.2081C46.5601 9.94172 45.571 8.55972 43.7145 6.64022C38.9205 1.68347 32.0054 -0.726035 25.2081 0.19209Z" fill="white"/>
</svg>
