<svg width="25" height="24" viewBox="0 0 25 24" fill="none" xmlns="http://www.w3.org/2000/svg">
<path fill-rule="evenodd" clip-rule="evenodd" d="M22.6136 9.00005C22.6136 9.55034 22.5763 10.0788 22.5061 10.586C22.4728 10.8262 22.2641 11 22.0216 11H17.773L16.5328 8.10608C16.3752 7.7384 16.0137 7.5 15.6136 7.5C15.2136 7.5 14.8521 7.7384 14.6945 8.10608L12.6136 12.9614L12.0328 11.6061C11.8752 11.2384 11.5137 11 11.1136 11H3.20565C2.9632 11 2.75446 10.8262 2.72123 10.586C2.65103 10.0788 2.61365 9.55037 2.61365 9.00009C2.61365 5.68638 5.29994 3 8.61365 3C10.1504 3 11.5521 3.57771 12.6136 4.52779C13.6752 3.57771 15.0769 3 16.6136 3C19.9274 3 22.6136 5.68634 22.6136 9.00005ZM4.07383 13C3.72254 13 3.48208 13.3533 3.63059 13.6716C5.59405 17.8802 9.87646 20.0527 11.7297 20.8254C12.2991 21.0628 12.9282 21.0628 13.4976 20.8254C15.3508 20.0527 19.6332 17.8802 21.5967 13.6716C21.7452 13.3533 21.5047 13 21.1535 13H17.1136C16.7136 13 16.3521 12.7616 16.1945 12.3939L15.6136 11.0386L13.5328 15.8939C13.3752 16.2616 13.0137 16.5 12.6136 16.5C12.2136 16.5 11.8521 16.2616 11.6945 15.8939L10.4543 13H4.07383Z" fill="#323232"/>
</svg>
