<svg width="35" height="18" viewBox="0 0 35 18" fill="none" xmlns="http://www.w3.org/2000/svg">
<mask id="path-1-outside-1_38_4" maskUnits="userSpaceOnUse" x="-1" y="-1" width="37" height="20" fill="black">
<rect fill="white" x="-1" y="-1" width="37" height="20"/>
<path d="M3.58581 0.319999L3.24981 10.76L3.53781 17H0.177813L0.465813 11.168L0.177813 0.92L3.58581 0.319999ZM10.578 0.319999L10.314 8.144L16.434 0.368L18.882 2L13.362 8.408L19.218 15.344L16.146 17.264L10.29 8.984L10.242 10.76L10.53 17H7.17L7.458 11.168L7.17 0.92L10.578 0.319999ZM27.515 0.199999C29.403 0.199999 30.955 0.919999 32.171 2.36C33.403 3.8 34.019 5.632 34.019 7.856C34.019 10.672 33.291 12.944 31.835 14.672C30.379 16.4 28.467 17.264 26.099 17.264C24.259 17.264 22.715 16.528 21.467 15.056C20.219 13.568 19.595 11.736 19.595 9.56C19.595 6.84 20.339 4.6 21.827 2.84C23.315 1.08 25.211 0.199999 27.515 0.199999ZM30.755 9.2C30.755 5.152 29.427 3.128 26.771 3.128C25.555 3.128 24.595 3.584 23.891 4.496C23.203 5.392 22.859 6.744 22.859 8.552C22.859 10.344 23.227 11.824 23.963 12.992C24.715 14.144 25.699 14.72 26.915 14.72C28.147 14.72 29.091 14.232 29.747 13.256C30.419 12.264 30.755 10.912 30.755 9.2Z"/>
</mask>
<path d="M3.58581 0.319999L4.5853 0.352166L4.6249 -0.878319L3.41242 -0.664855L3.58581 0.319999ZM3.24981 10.76L2.25033 10.7278L2.24907 10.767L2.25088 10.8061L3.24981 10.76ZM3.53781 17V18H4.58503L4.53675 16.9539L3.53781 17ZM0.177813 17L-0.82097 16.9507L-0.872789 18H0.177813V17ZM0.465813 11.168L1.4646 11.2173L1.46651 11.1786L1.46542 11.1399L0.465813 11.168ZM0.177813 0.92L0.00442274 -0.0648537L-0.846052 0.0848779L-0.821793 0.948092L0.177813 0.92ZM2.58633 0.287831L2.25033 10.7278L4.2493 10.7922L4.5853 0.352166L2.58633 0.287831ZM2.25088 10.8061L2.53888 17.0461L4.53675 16.9539L4.24875 10.7139L2.25088 10.8061ZM3.53781 16H0.177813V18H3.53781V16ZM1.1766 17.0493L1.4646 11.2173L-0.53297 11.1187L-0.82097 16.9507L1.1766 17.0493ZM1.46542 11.1399L1.17742 0.891908L-0.821793 0.948092L-0.533793 11.1961L1.46542 11.1399ZM0.351203 1.90485L3.7592 1.30485L3.41242 -0.664855L0.00442274 -0.0648537L0.351203 1.90485ZM10.578 0.319999L11.5774 0.353722L11.619 -0.878658L10.4046 -0.664855L10.578 0.319999ZM10.314 8.144L9.31457 8.11028L9.21161 11.1616L11.0998 8.76246L10.314 8.144ZM16.434 0.368L16.9887 -0.464051L16.2197 -0.976685L15.6482 -0.250464L16.434 0.368ZM18.882 2L19.6397 2.65266L20.378 1.7955L19.4367 1.16795L18.882 2ZM13.362 8.408L12.6043 7.75534L12.0477 8.40148L12.5979 9.05311L13.362 8.408ZM19.218 15.344L19.748 16.192L20.7264 15.5805L19.9821 14.6989L19.218 15.344ZM16.146 17.264L15.3296 17.8414L15.875 18.6126L16.676 18.112L16.146 17.264ZM10.29 8.984L11.1064 8.40657L9.37154 5.95353L9.29037 8.95698L10.29 8.984ZM10.242 10.76L9.24237 10.733L9.24138 10.7696L9.24306 10.8061L10.242 10.76ZM10.53 17V18H11.5772L11.5289 16.9539L10.53 17ZM7.17 17L6.17122 16.9507L6.1194 18H7.17V17ZM7.458 11.168L8.45678 11.2173L8.45869 11.1786L8.45761 11.1399L7.458 11.168ZM7.17 0.92L6.99661 -0.0648537L6.14614 0.0848779L6.17039 0.948092L7.17 0.92ZM9.57857 0.286276L9.31457 8.11028L11.3134 8.17772L11.5774 0.353722L9.57857 0.286276ZM11.0998 8.76246L17.2198 0.986464L15.6482 -0.250464L9.52819 7.52554L11.0998 8.76246ZM15.8793 1.20005L18.3273 2.83205L19.4367 1.16795L16.9887 -0.464051L15.8793 1.20005ZM18.1243 1.34734L12.6043 7.75534L14.1197 9.06066L19.6397 2.65266L18.1243 1.34734ZM12.5979 9.05311L18.4539 15.9891L19.9821 14.6989L14.1261 7.76289L12.5979 9.05311ZM18.688 14.496L15.616 16.416L16.676 18.112L19.748 16.192L18.688 14.496ZM16.9624 16.6866L11.1064 8.40657L9.47356 9.56143L15.3296 17.8414L16.9624 16.6866ZM9.29037 8.95698L9.24237 10.733L11.2416 10.787L11.2896 9.01102L9.29037 8.95698ZM9.24306 10.8061L9.53106 17.0461L11.5289 16.9539L11.2409 10.7139L9.24306 10.8061ZM10.53 16H7.17V18H10.53V16ZM8.16878 17.0493L8.45678 11.2173L6.45922 11.1187L6.17122 16.9507L8.16878 17.0493ZM8.45761 11.1399L8.16961 0.891908L6.17039 0.948092L6.45839 11.1961L8.45761 11.1399ZM7.34339 1.90485L10.7514 1.30485L10.4046 -0.664855L6.99661 -0.0648537L7.34339 1.90485ZM32.171 2.36L31.407 3.00519L31.4111 3.0101L32.171 2.36ZM31.835 14.672L31.0703 14.0276L31.0703 14.0276L31.835 14.672ZM21.467 15.056L20.7008 15.6986L20.7042 15.7027L21.467 15.056ZM23.891 4.496L23.0994 3.88494L23.0978 3.88697L23.891 4.496ZM23.963 12.992L23.117 13.5251L23.1212 13.5319L23.1256 13.5386L23.963 12.992ZM29.747 13.256L28.9191 12.6951L28.917 12.6982L29.747 13.256ZM27.515 1.2C29.1091 1.2 30.3814 1.79064 31.407 3.00518L32.935 1.71482C31.5286 0.0493622 29.6969 -0.800001 27.515 -0.800001V1.2ZM31.4111 3.0101C32.462 4.23838 33.019 5.82682 33.019 7.856H35.019C35.019 5.43718 34.344 3.36162 32.9309 1.7099L31.4111 3.0101ZM33.019 7.856C33.019 10.4961 32.3398 12.521 31.0703 14.0276L32.5997 15.3164C34.2422 13.367 35.019 10.8479 35.019 7.856H33.019ZM31.0703 14.0276C29.8145 15.518 28.1883 16.264 26.099 16.264V18.264C28.7457 18.264 30.9435 17.282 32.5997 15.3164L31.0703 14.0276ZM26.099 16.264C24.5688 16.264 23.2984 15.6697 22.2298 14.4093L20.7042 15.7027C22.1316 17.3863 23.9492 18.264 26.099 18.264V16.264ZM22.2332 14.4134C21.1545 13.1273 20.595 11.5311 20.595 9.56H18.595C18.595 11.9409 19.2835 14.0087 20.7008 15.6986L22.2332 14.4134ZM20.595 9.56C20.595 7.03167 21.2818 5.03368 22.5906 3.48563L21.0634 2.19437C19.3962 4.16632 18.595 6.64833 18.595 9.56H20.595ZM22.5906 3.48563C23.8887 1.95029 25.5054 1.2 27.515 1.2V-0.800001C24.9166 -0.800001 22.7413 0.209713 21.0634 2.19437L22.5906 3.48563ZM31.755 9.2C31.755 7.09846 31.4161 5.34864 30.5951 4.09742C29.7259 2.77274 28.3972 2.128 26.771 2.128V4.128C27.8008 4.128 28.4641 4.49526 28.9229 5.19458C29.4299 5.96736 29.755 7.25354 29.755 9.2H31.755ZM26.771 2.128C25.2651 2.128 24.0046 2.71228 23.0994 3.88495L24.6826 5.10705C25.1854 4.45572 25.8449 4.128 26.771 4.128V2.128ZM23.0978 3.88697C22.2164 5.03492 21.859 6.64654 21.859 8.552H23.859C23.859 6.84146 24.1896 5.74908 24.6842 5.10503L23.0978 3.88697ZM21.859 8.552C21.859 10.4774 22.2545 12.1564 23.117 13.5251L24.809 12.4589C24.1995 11.4916 23.859 10.2106 23.859 8.552H21.859ZM23.1256 13.5386C24.0338 14.9298 25.3122 15.72 26.915 15.72V13.72C26.0858 13.72 25.3962 13.3582 24.8004 12.4454L23.1256 13.5386ZM26.915 15.72C28.4611 15.72 29.7249 15.0816 30.577 13.8138L28.917 12.6982C28.4571 13.3824 27.8329 13.72 26.915 13.72V15.72ZM30.5749 13.8168C31.3976 12.6024 31.755 11.0299 31.755 9.2H29.755C29.755 10.7941 29.4404 11.9256 28.9191 12.6952L30.5749 13.8168Z" fill="black" fill-opacity="0.75" mask="url(#path-1-outside-1_38_4)"/>
</svg>
