<svg width="113" height="121" viewBox="0 0 113 121" fill="none" xmlns="http://www.w3.org/2000/svg">
<path fill-rule="evenodd" clip-rule="evenodd" d="M55.2895 0.554374C54.7717 1.10562 54.746 1.35312 54.746 5.77687C54.746 9.91713 54.796 10.4821 55.207 10.9899C55.8337 11.7639 57.1582 11.7639 57.785 10.9899C58.1962 10.4819 58.246 9.91613 58.246 5.74187C58.246 1.17437 58.2322 1.05012 57.6675 0.519375C56.9167 -0.185626 55.972 -0.171876 55.2895 0.554374ZM16.6097 16.5896C15.5327 17.6664 15.7455 18.0581 19.422 21.7684C23.099 25.4794 23.6735 25.7984 24.746 24.7259C25.7995 23.6724 25.489 23.1136 21.7987 19.4231C18.0917 15.7164 17.698 15.5014 16.6097 16.5896ZM91.1932 19.4231C87.503 23.1136 87.1925 23.6724 88.246 24.7259C89.3185 25.7984 89.893 25.4794 93.57 21.7684C97.2465 18.0581 97.4592 17.6664 96.3822 16.5896C95.294 15.5014 94.9002 15.7164 91.1932 19.4231ZM52.371 21.6329C43.784 22.9181 36.9207 26.4324 31.121 32.5144C26.2547 37.6174 23.0107 44.1594 21.855 51.2009C21.3462 54.3006 21.482 60.7586 22.1157 63.6009C23.2812 68.8291 25.4392 73.4331 28.9082 78.0926C32.6027 83.0551 34.33 86.0381 35.869 90.1144C37.5745 94.6306 38.2212 98.1464 38.4652 104.226C38.6255 108.213 38.7235 108.989 39.1755 109.851C40.346 112.082 42.0117 113.024 45.0585 113.177C46.917 113.27 47.246 113.352 47.246 113.717C47.246 114.609 48.7982 117.206 50.0085 118.338C50.698 118.983 51.9052 119.812 52.6915 120.181C53.9275 120.76 54.4425 120.851 56.496 120.851C58.5495 120.851 59.0645 120.76 60.3005 120.181C61.0867 119.812 62.294 118.983 62.9835 118.338C64.2117 117.189 65.746 114.606 65.746 113.686C65.746 113.282 65.9642 113.226 67.5295 113.226C70.0822 113.226 71.1545 112.833 72.6455 111.351C74.21 109.796 74.4107 109.037 74.5947 103.976C74.751 99.6689 75.4022 96.0414 76.769 91.8646C78.46 86.6954 80.2682 83.4049 85.0872 76.7254C87.8432 72.9054 89.8095 68.3486 90.9145 63.2199C91.5587 60.2299 91.5602 52.7364 90.917 49.7259C87.9005 35.6051 77.5755 25.2024 63.496 22.0986C61.67 21.6959 54.074 21.3781 52.371 21.6329ZM61.9007 25.3624C71.8767 27.0986 80.305 33.4506 84.8645 42.6691C87.0312 47.0499 87.996 51.3494 87.996 56.6249C87.996 63.8971 85.9957 69.7066 81.29 76.1009C77.6187 81.0894 74.9185 86.0734 73.6032 90.2884L73.1547 91.7259H65.7002H58.246V82.6704V73.6149L63.871 67.9704C69.8722 61.9486 70.1145 61.5944 68.996 60.4759C67.8745 59.3544 67.4892 59.6121 61.8107 65.2861L56.496 70.5966L51.1812 65.2861C45.5027 59.6121 45.1175 59.3544 43.996 60.4759C42.8775 61.5944 43.1197 61.9486 49.121 67.9704L54.746 73.6149V82.6704V91.7259H47.4292H40.1125L39.3815 89.6684C37.8607 85.3889 35.4365 81.0029 32.366 76.9759C28.32 71.6699 26.5467 67.9214 25.4725 62.4046C24.8862 59.3939 24.8367 54.2051 25.3652 51.1736C26.455 44.9254 30.1122 38.0046 34.529 33.8336C39.0382 29.5749 45.1762 26.4141 50.9757 25.3639C53.6012 24.8884 59.1735 24.8876 61.9007 25.3624ZM0.654713 55.2441C-0.151287 55.8779 -0.223536 57.0064 0.495964 57.7259C0.960464 58.1904 1.32921 58.2259 5.69021 58.2259C9.53446 58.2259 10.4855 58.1554 10.9402 57.8366C11.6667 57.3279 11.6965 55.9264 10.996 55.2259C10.5322 54.7621 10.1627 54.7259 5.90471 54.7259C1.63846 54.7259 1.26671 54.7626 0.654713 55.2441ZM101.996 55.2259C101.295 55.9264 101.325 57.3279 102.052 57.8366C102.506 58.1554 103.457 58.2259 107.302 58.2259C111.663 58.2259 112.031 58.1904 112.496 57.7259C113.215 57.0064 113.143 55.8779 112.337 55.2441C111.725 54.7626 111.353 54.7259 107.087 54.7259C102.829 54.7259 102.46 54.7621 101.996 55.2259ZM71.8257 97.1634C71.639 98.2289 71.4267 99.4664 71.3547 99.9134L71.2232 100.726H56.5297H41.836L41.5395 98.5384C41.3765 97.3354 41.1742 96.0979 41.0902 95.7884L40.9377 95.2259H56.5517H72.1657L71.8257 97.1634ZM70.996 105.988C70.996 107.872 70.5857 109.026 69.7597 109.468C69.0335 109.857 44.2227 109.818 43.364 109.427C42.391 108.984 41.996 107.991 41.996 105.988V104.226H56.496H70.996V105.988ZM62.246 113.448C62.246 113.57 61.8805 114.212 61.4335 114.876C59.1015 118.339 53.8905 118.339 51.5585 114.876C51.1117 114.212 50.746 113.57 50.746 113.448C50.746 113.325 53.3177 113.226 56.496 113.226C59.6742 113.226 62.246 113.325 62.246 113.448Z" fill="white"/>
</svg>
