<svg width="59" height="58" viewBox="0 0 59 58" fill="none" xmlns="http://www.w3.org/2000/svg">
<path fill-rule="evenodd" clip-rule="evenodd" d="M8.36733 0.365375L8.00195 0.73075V2.364V3.99725L29.9806 4.02987L51.9591 4.0625L52.571 4.44075C52.9502 4.67525 53.3267 5.05175 53.5612 5.431L53.9395 6.04288L53.9721 28.0214L54.0047 50H55.638H57.2712L57.6366 49.6346L58.002 49.2692V25V0.73075L57.6366 0.365375L57.2712 0H33.002H8.7327L8.36733 0.365375ZM4.36733 6.36537L4.00195 6.73075V8.364V9.99712L24.9806 10.0299L45.9591 10.0625L46.571 10.4408C46.9502 10.6753 47.3267 11.0518 47.5612 11.431L47.9395 12.0429L47.9721 33.0214L48.0048 54H49.638H51.2712L51.6366 53.6346L52.002 53.2692V30V6.73075L51.6366 6.36537L51.2712 6H28.002H4.7327L4.36733 6.36537ZM0.367328 12.3654L0.00195312 12.7308V35V57.2692L0.367328 57.6346L0.732703 58H23.002H45.2712L45.6366 57.6346L46.002 57.2692V35V12.7308L45.6366 12.3654L45.2712 12H23.002H0.732703L0.367328 12.3654ZM5.63658 14.3654C5.83758 14.5664 6.00195 14.8519 6.00195 15C6.00195 15.1481 5.83758 15.4336 5.63658 15.6346C5.3287 15.9425 5.17133 16 4.63658 16H4.00195V16.6346C4.00195 17.1694 3.94445 17.3267 3.63658 17.6346C3.17145 18.0997 2.82933 18.0966 2.35533 17.6226C1.9812 17.2485 1.97833 17.2351 2.0212 16.07C2.05983 15.0212 2.09808 14.8585 2.37695 14.5586C2.81633 14.0862 3.04958 14.0169 4.23033 14.0079C5.21895 14.0004 5.28958 14.0184 5.63658 14.3654ZM3.63658 20.3654C3.99245 20.7213 4.00195 20.7639 4.00195 22C4.00195 23.2361 3.99245 23.2787 3.63658 23.6346C3.43558 23.8356 3.15008 24 3.00195 24C2.85383 24 2.56833 23.8356 2.36733 23.6346C2.01145 23.2787 2.00195 23.2361 2.00195 22C2.00195 20.7639 2.01145 20.7213 2.36733 20.3654C2.56833 20.1644 2.85383 20 3.00195 20C3.15008 20 3.43558 20.1644 3.63658 20.3654ZM43.6448 50.3736L44.0185 50.7472L43.979 52.8424C43.9213 55.8963 43.8133 56 40.6922 56H38.7327L38.3673 55.6346C38.1663 55.4336 38.002 55.1481 38.002 55C38.002 54.8519 38.1663 54.5664 38.3673 54.3654L38.7327 54H40.3673H42.002V52.3654V50.7308L42.3673 50.3654C42.8316 49.9011 43.1746 49.9034 43.6448 50.3736Z" fill="white"/>
</svg>
