<svg width="128" height="128" viewBox="0 0 128 128" fill="none" xmlns="http://www.w3.org/2000/svg">
<path fill-rule="evenodd" clip-rule="evenodd" d="M78.6938 0.290482C78.2125 0.442982 77.3008 1.08473 76.6678 1.71648C74.6815 3.69873 74.6795 3.76873 76.3095 14.9647C77.077 20.237 77.618 24.6287 77.5118 24.7237C77.4058 24.819 73.6625 26.7932 69.194 29.1112C64.7255 31.4292 60.6588 33.6965 60.1573 34.1497C58.9505 35.24 58.408 36.4497 58.408 38.0502C58.408 39.8035 59.044 41.2947 60.2213 42.3025C61.39 43.3027 62.0673 43.5102 66.5273 44.2337L69.9855 44.7945L35.6125 79.1907C11.1223 103.697 1.08302 113.902 0.695268 114.681C-0.074482 116.229 -0.209482 118.055 0.312268 119.856C0.704018 121.207 0.996518 121.592 3.65527 124.25C6.31402 126.909 6.69827 127.202 8.05002 127.593C9.91052 128.133 11.6973 127.975 13.347 127.127C14.9713 126.291 41.8283 99.4367 42.082 98.3947C42.286 97.5555 41.8183 96.3275 41.1038 95.827C40.817 95.6262 40.1328 95.462 39.583 95.462C38.5963 95.462 38.4118 95.6337 24.8188 109.212C12.0185 121.998 10.9943 122.962 10.2015 122.962C9.46277 122.962 9.05527 122.668 7.14652 120.759C5.23277 118.846 4.94377 118.444 4.94377 117.699C4.94377 116.895 6.61527 115.17 32.0038 89.7782L59.0635 62.714L62.1295 65.7727L65.1955 68.8312L59.3315 74.7092C56.1063 77.942 53.3505 80.9017 53.2073 81.2865C53.0148 81.8042 53.034 82.194 53.2818 82.7865C53.7605 83.9322 54.3675 84.337 55.6063 84.337H56.692L69.9018 71.129L83.1113 57.9212L83.6723 61.379C84.3955 65.8385 84.603 66.5157 85.6033 67.6845C86.6073 68.8572 88.1013 69.4977 89.8338 69.4977C91.3945 69.4977 92.5563 69.0332 93.601 67.9915C94.0548 67.5395 96.1965 63.7182 98.6978 58.8992C101.071 54.3275 103.092 50.4977 103.189 50.3887C103.286 50.2797 107.674 50.8215 112.939 51.5927C121.63 52.866 122.63 52.9672 123.777 52.692C126.012 52.1557 127.944 49.6735 127.944 47.337C127.944 45.2615 127.656 44.89 120.345 37.522L113.334 30.4572L117.663 21.7667C122.215 12.6302 122.509 11.812 121.969 9.80673C121.573 8.33373 119.955 6.59773 118.524 6.11023C116.258 5.33823 116.136 5.37923 106.701 10.087C101.879 12.4932 97.7993 14.462 97.6355 14.462C97.472 14.462 94.1838 11.3317 90.3283 7.50623C84.4875 1.70998 83.1473 0.501232 82.2898 0.256232C81.0565 -0.0962676 79.8785 -0.0852677 78.6938 0.290482ZM88.3105 12.4537C93.7888 17.9342 96.0013 19.9897 96.552 20.1107C97.1948 20.252 98.7275 19.5657 106.993 15.4375C114.756 11.5602 116.743 10.661 116.994 10.912C117.245 11.163 116.344 13.1527 112.462 20.9247C108.321 29.2165 107.643 30.7307 107.795 31.3557C107.918 31.8637 110.269 34.3887 115.494 39.6247C121.205 45.347 122.977 47.2655 122.852 47.5895C122.726 47.9182 122.502 47.9825 121.879 47.8685C117.889 47.138 101.897 44.974 101.291 45.0825C100.863 45.159 100.34 45.4165 100.129 45.6545C99.9188 45.8922 97.6065 50.1932 94.9913 55.212C91.274 62.3447 90.1223 64.3545 89.7148 64.417C89.4283 64.4607 89.1938 64.4287 89.1938 64.3455C89.1938 63.412 85.8295 44.1252 85.5615 43.5217C85.3443 43.033 84.8728 42.5625 84.384 42.3467C83.7518 42.0677 64.5158 38.6992 63.6138 38.7097C63.5013 38.711 63.445 38.481 63.4888 38.199C63.5505 37.8025 65.6715 36.588 72.8108 32.861C78.9598 29.6507 82.2213 27.8105 82.5563 27.3617L83.0598 26.6872L81.5168 16.0265C80.668 10.1632 80.0298 5.27498 80.0985 5.16398C80.167 5.05273 80.358 4.96198 80.5225 4.96198C80.6873 4.96198 84.1918 8.33323 88.3105 12.4537ZM28.7213 8.56098C27.6308 9.16523 27.462 9.83973 27.4525 13.6377C27.443 17.5282 27.6285 18.286 28.73 18.8557C30.0243 19.525 31.5905 19.061 32.145 17.844C32.5268 17.006 32.5488 10.4657 32.1725 9.63998C31.6158 8.41823 29.9298 7.89098 28.7213 8.56098ZM14.7213 22.561C13.0458 23.4895 13.1008 26.1337 14.8118 26.9132C15.695 27.3157 22.1925 27.3157 23.0758 26.9132C23.7923 26.5867 24.4438 25.5385 24.4438 24.712C24.4438 23.8855 23.7923 22.8372 23.0758 22.5107C22.1375 22.0832 15.5113 22.123 14.7213 22.561ZM36.7213 22.561C35.0458 23.4895 35.1008 26.1337 36.8118 26.9132C37.695 27.3157 44.1925 27.3157 45.0758 26.9132C45.7923 26.5867 46.4438 25.5385 46.4438 24.712C46.4438 23.8855 45.7923 22.8372 45.0758 22.5107C44.1375 22.0832 37.5113 22.123 36.7213 22.561ZM28.7213 30.561C27.6308 31.1652 27.462 31.8397 27.4525 35.6377C27.443 39.5282 27.6285 40.286 28.73 40.8557C30.0243 41.525 31.5905 41.061 32.145 39.844C32.331 39.4362 32.4438 37.8747 32.4438 35.712C32.4438 33.5492 32.331 31.9877 32.145 31.58C31.5978 30.3785 29.9403 29.8852 28.7213 30.561ZM78.9178 46.332C80.072 46.5352 81.0653 46.75 81.1245 46.8095C81.184 46.869 81.4158 48.057 81.6393 49.4495L82.046 51.9812L75.435 58.5957L68.8243 65.2102L65.758 62.1512L62.6918 59.0925L69.2535 52.5272C73.4813 48.2972 75.9938 45.962 76.317 45.9622C76.593 45.9625 77.7633 46.129 78.9178 46.332ZM110.798 72.7042C109.772 73.1195 108.984 74.4665 107.947 77.578L106.902 80.712H103.601C100.67 80.712 100.176 80.7752 99.1988 81.2745C97.8425 81.9675 97.199 82.818 97.0198 84.154C96.787 85.889 97.5695 87.056 100.327 89.087C101.634 90.0495 102.863 90.957 103.059 91.1035C103.358 91.3282 103.258 91.8545 102.415 94.4785C100.992 98.909 101.287 100.737 103.599 101.835C105.247 102.616 106.309 102.287 109.57 99.9827L112.46 97.9405L115.098 99.8402C116.548 100.885 118.015 101.846 118.356 101.976C120.689 102.863 123.45 100.957 123.441 98.466C123.439 97.9825 122.993 96.1855 122.451 94.4725C121.908 92.7597 121.488 91.3437 121.517 91.326C122.5 90.7177 126.788 87.2965 127.16 86.823C128.714 84.8472 127.709 81.828 125.219 80.996C124.752 80.8397 122.933 80.712 121.177 80.712H117.985L116.948 77.5997C115.851 74.3082 115.343 73.431 114.184 72.832C113.411 72.432 111.637 72.365 110.798 72.7042ZM113.278 82.3227C114.326 85.54 114.356 85.563 117.726 85.712L120.553 85.837L118.801 87.1342C117.838 87.8475 116.843 88.6587 116.592 88.9365C115.968 89.6265 116.034 90.9382 116.807 93.1917C117.157 94.2117 117.398 95.0907 117.344 95.145C117.29 95.199 116.374 94.6175 115.308 93.8527C113.791 92.7647 113.168 92.462 112.444 92.462C111.72 92.462 111.097 92.7647 109.58 93.8527C108.514 94.6175 107.598 95.199 107.543 95.145C107.489 95.0907 107.726 94.2202 108.069 93.2105C108.78 91.1212 108.86 89.8105 108.324 89.045C108.12 88.7545 107.14 87.9137 106.144 87.1767L104.335 85.837L107.162 85.712C110.532 85.563 110.562 85.54 111.61 82.3227C111.988 81.1617 112.363 80.212 112.444 80.212C112.525 80.212 112.9 81.1617 113.278 82.3227ZM45.9245 88.1927C43.9583 90.159 46.1123 93.3087 48.609 92.1182C50.253 91.3342 50.53 89.2497 49.145 88.0842C48.0993 87.2042 46.8715 87.2457 45.9245 88.1927Z" fill="white"/>
</svg>
