<svg width="35" height="25" viewBox="0 0 35 25" fill="none" xmlns="http://www.w3.org/2000/svg">
<path fill-rule="evenodd" clip-rule="evenodd" d="M5.06912 0.092829C2.43631 0.628611 0.485842 2.65736 0.0728734 5.28924C0.00607654 5.71525 -0.011814 7.76846 0.00709224 12.8278C0.0352954 20.3592 0.0095139 19.8878 0.458342 21.0874C0.685764 21.6953 1.29053 22.6005 1.82865 23.1386C2.62904 23.939 3.56334 24.4644 4.79568 24.8069C5.22412 24.926 6.31568 24.9372 17.491 24.9372C28.6663 24.9372 29.7579 24.926 30.1863 24.8069C31.8707 24.3387 33.0913 23.4714 33.9787 22.1119C34.3661 21.5186 34.5914 20.9999 34.8216 20.1716C34.9389 19.7495 34.9519 18.9835 34.9519 12.4763C34.9519 5.969 34.9389 5.20307 34.8216 4.78096C34.3534 3.0965 33.4861 1.87596 32.1266 0.988533C31.5566 0.616345 31.0797 0.405095 30.2265 0.146736C29.8329 0.0275167 28.75 0.0150951 17.6863 0.00290762C7.90998 -0.00795176 5.47912 0.00939148 5.06912 0.092829ZM29.6361 2.59588C30.9836 2.94689 32.0215 3.98814 32.3744 5.34291C32.5486 6.01182 32.5486 18.9407 32.3744 19.6096C32.0215 20.9644 30.9836 22.0057 29.6361 22.3567C29.2337 22.4615 27.7322 22.4763 17.491 22.4763C7.24975 22.4763 5.74826 22.4615 5.34584 22.3567C3.99834 22.0057 2.96045 20.9644 2.60756 19.6096C2.43334 18.9407 2.43334 6.01182 2.60756 5.34291C2.95592 4.00541 3.9917 2.95486 5.31225 2.59978C5.96506 2.42416 28.963 2.42057 29.6361 2.59588ZM5.77232 5.05979C4.92318 5.41682 4.721 6.52479 5.39373 7.13447C5.49451 7.2258 8.16092 8.73736 11.3191 10.4936C16.9515 13.6256 17.0695 13.6866 17.491 13.6846C17.9097 13.6827 18.0632 13.6033 23.5066 10.5735C26.5789 8.86346 29.2275 7.37658 29.3924 7.26932C30.4721 6.56721 29.8881 4.85307 28.618 4.99619C28.3778 5.0233 26.9384 5.78854 22.9998 7.98322C20.0875 9.60604 17.6404 10.9506 17.5618 10.9712C17.4717 10.9947 15.4333 9.9044 12.0448 8.02002C6.38537 4.87291 6.30592 4.83541 5.77232 5.05979Z" fill="white"/>
</svg>
