<svg width="35" height="35" viewBox="0 0 35 35" fill="none" xmlns="http://www.w3.org/2000/svg">
<path fill-rule="evenodd" clip-rule="evenodd" d="M10.9552 0.111941C10.0061 0.318348 8.93871 0.987723 8.35777 1.74077C7.89863 2.33585 7.54144 3.14866 7.50254 3.68679C7.47465 4.07194 7.49902 4.18288 7.66762 4.43765C7.91012 4.80405 8.29183 4.99538 8.78043 4.99538C9.39058 4.99538 9.79184 4.66804 9.98918 4.00936C10.1354 3.52116 10.5408 3.02882 11.0106 2.76882L11.4341 2.53444H21.2388C30.7797 2.53444 31.0517 2.5385 31.3484 2.68577C31.7373 2.87866 32.1055 3.24686 32.2984 3.63577C32.4445 3.93022 32.4497 4.17046 32.4497 10.6204C32.4497 18.0514 32.4857 17.5399 31.9229 18.1155C31.509 18.5388 31.1279 18.6844 30.2797 18.7433C29.4639 18.7998 29.2649 18.8858 28.939 19.3223C28.8192 19.4827 28.7779 19.6554 28.7779 19.9954C28.7779 20.4894 28.9058 20.7391 29.3156 21.0452C29.4865 21.1729 29.6744 21.2119 30.2211 21.2334C32.325 21.3158 34.1183 20.0671 34.8042 18.0423C34.9419 17.6358 34.9497 17.2355 34.9497 10.6204C34.9497 4.00522 34.9419 3.60499 34.8042 3.1985C34.4263 2.08311 33.5905 1.05249 32.6627 0.557957C32.4007 0.418348 31.9147 0.234597 31.5829 0.149676C30.9971 -9.01241e-05 30.6941 -0.00446511 21.2068 0.00155052C13.3729 0.00655052 11.3391 0.0285038 10.9552 0.111941ZM3.37527 6.3996C1.84878 6.80218 0.800972 7.7789 0.195424 9.36358C0.0305025 9.7953 0.0283931 9.87421 0.00558062 16.5579C-0.0108256 21.3757 0.00823697 23.4693 0.0721432 23.8507C0.342456 25.4649 1.7298 26.9352 3.36769 27.3434L3.73879 27.4358V30.7155C3.73879 34.3454 3.738 34.3394 4.24457 34.7257C4.54613 34.9557 4.88285 35.032 5.27902 34.9602C5.53988 34.9128 6.01215 34.4698 9.28676 31.2009L12.9988 27.4954H18.2391C23.1682 27.4954 23.5146 27.4864 24.0715 27.344C25.6397 26.9429 26.7685 25.8774 27.3044 24.2923C27.4418 23.8861 27.4497 23.4805 27.4497 16.8704C27.4497 10.2552 27.4419 9.85499 27.3042 9.44851C27.0686 8.75304 26.6437 8.05655 26.16 7.5728C25.6499 7.06272 25.2041 6.77913 24.4513 6.48593L23.9341 6.28444L13.9341 6.26835C4.35574 6.25288 3.9105 6.25843 3.37527 6.3996ZM23.8484 8.93577C24.2373 9.12866 24.6055 9.49687 24.7984 9.88577C24.9445 10.1802 24.9497 10.4205 24.9497 16.8704C24.9497 23.141 24.9411 23.5673 24.8094 23.8319C24.625 24.2021 24.2528 24.5766 23.8601 24.7868C23.5455 24.9552 23.5071 24.9566 17.8013 24.9954C13.5686 25.0242 12.018 25.0588 11.9029 25.1273C11.8169 25.1783 10.5161 26.453 9.01223 27.9598L6.27785 30.6997L6.23879 28.2437C6.20176 25.9178 6.19121 25.7763 6.03863 25.5722C5.71222 25.1353 5.51386 25.0498 4.69449 24.993C3.60074 24.9172 3.05253 24.6077 2.67918 23.855C2.53371 23.5619 2.52691 23.2965 2.50449 17.0266C2.48769 12.3325 2.50597 10.4177 2.56972 10.1985C2.753 9.56812 3.19472 9.10319 3.8523 8.84851C4.03136 8.77921 6.50121 8.75983 13.8169 8.77038C23.2654 8.78405 23.5522 8.78874 23.8484 8.93577Z" fill="white"/>
</svg>
