<svg width="61" height="70" viewBox="0 0 61 70" fill="none" xmlns="http://www.w3.org/2000/svg">
<circle cx="30" cy="45" r="24" stroke="#C2C2C2" stroke-opacity="0.15" stroke-width="0.75"/>
<mask id="path-2-outside-1_39_6" maskUnits="userSpaceOnUse" x="13" y="41" width="37" height="20" fill="black">
<rect fill="white" x="13" y="41" width="37" height="20"/>
<path d="M17.5858 42.32L17.2498 52.76L17.5378 59H14.1778L14.4658 53.168L14.1778 42.92L17.5858 42.32ZM24.578 42.32L24.314 50.144L30.434 42.368L32.882 44L27.362 50.408L33.218 57.344L30.146 59.264L24.29 50.984L24.242 52.76L24.53 59H21.17L21.458 53.168L21.17 42.92L24.578 42.32ZM41.515 42.2C43.403 42.2 44.955 42.92 46.171 44.36C47.403 45.8 48.019 47.632 48.019 49.856C48.019 52.672 47.291 54.944 45.835 56.672C44.379 58.4 42.467 59.264 40.099 59.264C38.259 59.264 36.715 58.528 35.467 57.056C34.219 55.568 33.595 53.736 33.595 51.56C33.595 48.84 34.339 46.6 35.827 44.84C37.315 43.08 39.211 42.2 41.515 42.2ZM44.755 51.2C44.755 47.152 43.427 45.128 40.771 45.128C39.555 45.128 38.595 45.584 37.891 46.496C37.203 47.392 36.859 48.744 36.859 50.552C36.859 52.344 37.227 53.824 37.963 54.992C38.715 56.144 39.699 56.72 40.915 56.72C42.147 56.72 43.091 56.232 43.747 55.256C44.419 54.264 44.755 52.912 44.755 51.2Z"/>
</mask>
<path d="M17.5858 42.32L18.5853 42.3522L18.6249 41.1217L17.4124 41.3351L17.5858 42.32ZM17.2498 52.76L16.2503 52.7278L16.2491 52.767L16.2509 52.8061L17.2498 52.76ZM17.5378 59V60H18.585L18.5367 58.9539L17.5378 59ZM14.1778 59L13.179 58.9507L13.1272 60H14.1778V59ZM14.4658 53.168L15.4646 53.2173L15.4665 53.1786L15.4654 53.1399L14.4658 53.168ZM14.1778 42.92L14.0044 41.9351L13.1539 42.0849L13.1782 42.9481L14.1778 42.92ZM16.5863 42.2878L16.2503 52.7278L18.2493 52.7922L18.5853 42.3522L16.5863 42.2878ZM16.2509 52.8061L16.5389 59.0461L18.5367 58.9539L18.2487 52.7139L16.2509 52.8061ZM17.5378 58H14.1778V60H17.5378V58ZM15.1766 59.0493L15.4646 53.2173L13.467 53.1187L13.179 58.9507L15.1766 59.0493ZM15.4654 53.1399L15.1774 42.8919L13.1782 42.9481L13.4662 53.1961L15.4654 53.1399ZM14.3512 43.9049L17.7592 43.3049L17.4124 41.3351L14.0044 41.9351L14.3512 43.9049ZM24.578 42.32L25.5774 42.3537L25.619 41.1213L24.4046 41.3351L24.578 42.32ZM24.314 50.144L23.3146 50.1103L23.2116 53.1616L25.0998 50.7625L24.314 50.144ZM30.434 42.368L30.9887 41.5359L30.2197 41.0233L29.6482 41.7495L30.434 42.368ZM32.882 44L33.6397 44.6527L34.378 43.7955L33.4367 43.1679L32.882 44ZM27.362 50.408L26.6043 49.7553L26.0477 50.4015L26.5979 51.0531L27.362 50.408ZM33.218 57.344L33.748 58.192L34.7264 57.5805L33.9821 56.6989L33.218 57.344ZM30.146 59.264L29.3296 59.8414L29.875 60.6126L30.676 60.112L30.146 59.264ZM24.29 50.984L25.1064 50.4066L23.3715 47.9535L23.2904 50.957L24.29 50.984ZM24.242 52.76L23.2424 52.733L23.2414 52.7696L23.2431 52.8061L24.242 52.76ZM24.53 59V60H25.5772L25.5289 58.9539L24.53 59ZM21.17 59L20.1712 58.9507L20.1194 60H21.17V59ZM21.458 53.168L22.4568 53.2173L22.4587 53.1786L22.4576 53.1399L21.458 53.168ZM21.17 42.92L20.9966 41.9351L20.1461 42.0849L20.1704 42.9481L21.17 42.92ZM23.5786 42.2863L23.3146 50.1103L25.3134 50.1777L25.5774 42.3537L23.5786 42.2863ZM25.0998 50.7625L31.2198 42.9865L29.6482 41.7495L23.5282 49.5255L25.0998 50.7625ZM29.8793 43.2L32.3273 44.8321L33.4367 43.1679L30.9887 41.5359L29.8793 43.2ZM32.1243 43.3473L26.6043 49.7553L28.1197 51.0607L33.6397 44.6527L32.1243 43.3473ZM26.5979 51.0531L32.4539 57.9891L33.9821 56.6989L28.1261 49.7629L26.5979 51.0531ZM32.688 56.496L29.616 58.416L30.676 60.112L33.748 58.192L32.688 56.496ZM30.9624 58.6866L25.1064 50.4066L23.4736 51.5614L29.3296 59.8414L30.9624 58.6866ZM23.2904 50.957L23.2424 52.733L25.2416 52.787L25.2896 51.011L23.2904 50.957ZM23.2431 52.8061L23.5311 59.0461L25.5289 58.9539L25.2409 52.7139L23.2431 52.8061ZM24.53 58H21.17V60H24.53V58ZM22.1688 59.0493L22.4568 53.2173L20.4592 53.1187L20.1712 58.9507L22.1688 59.0493ZM22.4576 53.1399L22.1696 42.8919L20.1704 42.9481L20.4584 53.1961L22.4576 53.1399ZM21.3434 43.9049L24.7514 43.3049L24.4046 41.3351L20.9966 41.9351L21.3434 43.9049ZM46.171 44.36L45.407 45.0052L45.4111 45.0101L46.171 44.36ZM45.835 56.672L45.0703 56.0276L45.0703 56.0276L45.835 56.672ZM35.467 57.056L34.7008 57.6986L34.7042 57.7027L35.467 57.056ZM37.891 46.496L37.0994 45.8849L37.0978 45.887L37.891 46.496ZM37.963 54.992L37.117 55.5251L37.1212 55.5319L37.1256 55.5386L37.963 54.992ZM43.747 55.256L42.9191 54.6951L42.917 54.6982L43.747 55.256ZM41.515 43.2C43.1091 43.2 44.3814 43.7906 45.407 45.0052L46.935 43.7148C45.5286 42.0494 43.6969 41.2 41.515 41.2V43.2ZM45.4111 45.0101C46.462 46.2384 47.019 47.8268 47.019 49.856H49.019C49.019 47.4372 48.344 45.3616 46.9309 43.7099L45.4111 45.0101ZM47.019 49.856C47.019 52.4961 46.3398 54.521 45.0703 56.0276L46.5997 57.3164C48.2422 55.367 49.019 52.8479 49.019 49.856H47.019ZM45.0703 56.0276C43.8145 57.518 42.1883 58.264 40.099 58.264V60.264C42.7457 60.264 44.9435 59.282 46.5997 57.3164L45.0703 56.0276ZM40.099 58.264C38.5688 58.264 37.2984 57.6697 36.2298 56.4093L34.7042 57.7027C36.1316 59.3863 37.9492 60.264 40.099 60.264V58.264ZM36.2332 56.4134C35.1545 55.1273 34.595 53.5311 34.595 51.56H32.595C32.595 53.9409 33.2835 56.0087 34.7008 57.6986L36.2332 56.4134ZM34.595 51.56C34.595 49.0317 35.2818 47.0337 36.5906 45.4856L35.0634 44.1944C33.3962 46.1663 32.595 48.6483 32.595 51.56H34.595ZM36.5906 45.4856C37.8887 43.9503 39.5054 43.2 41.515 43.2V41.2C38.9166 41.2 36.7413 42.2097 35.0634 44.1944L36.5906 45.4856ZM45.755 51.2C45.755 49.0985 45.4161 47.3486 44.5951 46.0974C43.7259 44.7727 42.3972 44.128 40.771 44.128V46.128C41.8008 46.128 42.4641 46.4953 42.9229 47.1946C43.4299 47.9674 43.755 49.2535 43.755 51.2H45.755ZM40.771 44.128C39.2651 44.128 38.0046 44.7123 37.0994 45.8849L38.6826 47.1071C39.1854 46.4557 39.8449 46.128 40.771 46.128V44.128ZM37.0978 45.887C36.2164 47.0349 35.859 48.6465 35.859 50.552H37.859C37.859 48.8415 38.1896 47.7491 38.6842 47.105L37.0978 45.887ZM35.859 50.552C35.859 52.4774 36.2545 54.1564 37.117 55.5251L38.809 54.4589C38.1995 53.4916 37.859 52.2106 37.859 50.552H35.859ZM37.1256 55.5386C38.0338 56.9298 39.3122 57.72 40.915 57.72V55.72C40.0858 55.72 39.3962 55.3582 38.8004 54.4454L37.1256 55.5386ZM40.915 57.72C42.4611 57.72 43.7249 57.0816 44.577 55.8138L42.917 54.6982C42.4571 55.3824 41.8329 55.72 40.915 55.72V57.72ZM44.5749 55.8168C45.3976 54.6024 45.755 53.0299 45.755 51.2H43.755C43.755 52.7941 43.4404 53.9256 42.9191 54.6952L44.5749 55.8168Z" fill="black" fill-opacity="0.75" mask="url(#path-2-outside-1_39_6)"/>
<path d="M21.2523 27.836C21.4843 27.836 21.6003 28.368 21.6003 29.432C21.6003 29.92 21.5643 30.42 21.4923 30.932C21.4203 31.436 21.3123 31.932 21.1683 32.42C21.0323 32.9 20.8683 33.372 20.6763 33.836C20.4843 34.3 20.2683 34.744 20.0283 35.168C20.4683 34.824 20.9283 34.56 21.4083 34.376C21.4803 34.344 21.5403 34.324 21.5883 34.316C21.6443 34.3 21.6883 34.292 21.7203 34.292C21.7523 34.3 21.7683 34.308 21.7683 34.316C21.7683 34.38 21.6603 34.484 21.4443 34.628C21.3083 34.716 21.1643 34.824 21.0123 34.952C20.8603 35.08 20.7243 35.2 20.6043 35.312C20.4843 35.424 20.3603 35.536 20.2323 35.648C20.1043 35.768 19.9883 35.868 19.8843 35.948C19.7803 36.028 19.6763 36.092 19.5723 36.14C19.4683 36.196 19.3763 36.224 19.2963 36.224C19.2563 36.224 19.2083 36.212 19.1523 36.188C19.1043 36.172 19.0603 36.144 19.0203 36.104C18.9803 36.064 18.9603 36.02 18.9603 35.972C18.9603 35.868 19.0763 35.74 19.3083 35.588C19.5483 35.436 19.6723 35.348 19.6803 35.324C19.8883 34.828 20.0563 34.404 20.1843 34.052C20.3123 33.7 20.4483 33.284 20.5923 32.804C20.7443 32.324 20.8563 31.852 20.9283 31.388C21.0083 30.924 21.0483 30.464 21.0483 30.008C21.0483 29.664 21.0243 29.324 20.9763 28.988C20.9203 29.068 20.7963 29.272 20.6043 29.6C20.4203 29.928 20.2043 30.296 19.9563 30.704C19.7083 31.112 19.4603 31.492 19.2123 31.844C17.7803 33.876 16.7243 34.896 16.0443 34.904C15.7483 34.904 15.5323 34.72 15.3963 34.352C15.2603 33.976 15.1923 33.468 15.1923 32.828C15.1923 31.54 15.3883 30.068 15.7803 28.412C15.4043 28.924 15.0123 29.508 14.6043 30.164C14.2043 30.82 13.7723 31.58 13.3083 32.444C12.8523 33.308 12.4763 34.192 12.1803 35.096C11.8923 36 11.7483 36.8 11.7483 37.496V37.508C11.7243 37.628 11.6883 37.688 11.6403 37.688C11.5683 37.688 11.5003 37.596 11.4363 37.412C11.3723 37.228 11.3403 37.048 11.3403 36.872C11.3403 36.328 11.5323 35.58 11.9163 34.628C12.3003 33.676 12.7443 32.752 13.2483 31.856C13.7603 30.952 14.2363 30.152 14.6763 29.456C15.1243 28.752 15.4363 28.296 15.6123 28.088C15.5723 28.08 15.4883 28.06 15.3603 28.028C15.2323 27.996 15.1083 27.968 14.9883 27.944C14.8683 27.912 14.7163 27.876 14.5323 27.836C14.3483 27.796 14.1723 27.764 14.0043 27.74C13.8443 27.716 13.6603 27.696 13.4523 27.68C13.2523 27.656 13.0643 27.644 12.8883 27.644C12.5523 27.644 12.2363 27.704 11.9403 27.824C11.6523 27.936 11.4203 28.1 11.2443 28.316C11.0683 28.524 10.9803 28.756 10.9803 29.012C10.9803 29.332 11.1363 29.664 11.4483 30.008C11.7603 30.344 12.2523 30.664 12.9243 30.968C13.0683 31.032 13.1483 31.1 13.1643 31.172C13.1643 31.18 13.1563 31.188 13.1403 31.196C13.1323 31.204 13.1163 31.208 13.0923 31.208C13.0523 31.208 13.0043 31.204 12.9483 31.196C12.9003 31.18 12.8363 31.164 12.7563 31.148C12.1723 31.004 11.6883 30.72 11.3043 30.296C10.9283 29.872 10.7203 29.456 10.6803 29.048C10.6803 29.032 10.6763 29.016 10.6683 29C10.6683 28.976 10.6683 28.956 10.6683 28.94C10.6683 28.916 10.6683 28.896 10.6683 28.88C10.6683 28.856 10.6683 28.836 10.6683 28.82C10.6683 28.804 10.6683 28.788 10.6683 28.772C10.6683 27.716 11.4283 27.188 12.9483 27.188C13.8683 27.188 14.9523 27.368 16.2003 27.728C16.3443 27.768 16.4163 27.876 16.4163 28.052C16.4163 28.14 16.3843 28.336 16.3203 28.64C15.9443 30.4 15.7563 31.772 15.7563 32.756C15.7563 32.98 15.7643 33.18 15.7803 33.356C15.8043 33.532 15.8363 33.688 15.8763 33.824C15.9243 33.952 15.9883 34.052 16.0683 34.124C16.1483 34.196 16.2443 34.232 16.3563 34.232C16.8763 34.232 17.7323 33.388 18.9243 31.7C19.3643 31.068 19.7683 30.424 20.1363 29.768C20.5043 29.112 20.7403 28.648 20.8443 28.376C20.9883 28.016 21.1243 27.836 21.2523 27.836ZM25.117 31.424C25.269 31.448 25.345 31.492 25.345 31.556C25.345 31.62 25.285 31.684 25.165 31.748C25.045 31.804 24.937 31.832 24.841 31.832C24.841 32.768 24.597 33.568 24.109 34.232C23.621 34.896 23.137 35.228 22.657 35.228C22.193 35.228 21.961 34.892 21.961 34.22C21.961 34.036 21.977 33.852 22.009 33.668C22.049 33.46 22.121 33.192 22.225 32.864C22.329 32.536 22.465 32.18 22.633 31.796C22.801 31.412 23.005 31.088 23.245 30.824C23.493 30.552 23.741 30.416 23.989 30.416H24.073C24.073 30.304 24.105 30.208 24.169 30.128C24.233 30.048 24.321 30.008 24.433 30.008C24.545 30.016 24.645 30.252 24.733 30.716C24.821 31.172 24.949 31.408 25.117 31.424ZM24.505 31.736C24.433 31.696 24.345 31.556 24.241 31.316C24.137 31.068 24.065 30.944 24.025 30.944C23.777 30.944 23.489 31.312 23.161 32.048C22.833 32.776 22.629 33.352 22.549 33.776C22.517 33.96 22.501 34.128 22.501 34.28C22.501 34.672 22.613 34.868 22.837 34.868C23.157 34.868 23.513 34.544 23.905 33.896C24.305 33.24 24.505 32.52 24.505 31.736ZM28.5959 30.752C28.1639 31.448 27.7599 32.224 27.3839 33.08C27.0159 33.928 26.8319 34.588 26.8319 35.06C26.8319 35.172 26.8639 35.228 26.9279 35.228C26.9519 35.228 27.0199 35.192 27.1319 35.12C27.2519 35.048 27.3239 35.012 27.3479 35.012C27.3879 35.012 27.4079 35.036 27.4079 35.084C27.4079 35.18 27.3319 35.28 27.1799 35.384C27.0279 35.496 26.8799 35.552 26.7359 35.552C26.5359 35.552 26.4359 35.404 26.4359 35.108C26.4359 34.764 26.5479 34.28 26.7719 33.656C26.9959 33.024 27.2199 32.452 27.4439 31.94C27.6679 31.42 27.7799 31.128 27.7799 31.064C27.7799 31.048 27.7759 31.04 27.7679 31.04C27.7359 31.04 27.6639 31.1 27.5519 31.22C27.0479 31.788 26.6239 32.344 26.2799 32.888C25.9359 33.424 25.7039 33.836 25.5839 34.124C25.4719 34.412 25.3519 34.644 25.2239 34.82C25.1039 34.988 24.9599 35.072 24.7919 35.072C24.7199 35.072 24.6839 35.032 24.6839 34.952C24.6839 34.88 24.7039 34.8 24.7439 34.712C24.9599 34.152 25.1679 33.572 25.3679 32.972C25.5679 32.372 25.7799 31.704 26.0039 30.968C26.2359 30.224 26.4239 29.636 26.5679 29.204C26.5919 29.132 26.6039 29.06 26.6039 28.988C26.6039 28.956 26.5999 28.928 26.5919 28.904C26.5839 28.872 26.5799 28.848 26.5799 28.832C26.5799 28.8 26.5919 28.748 26.6159 28.676C26.7999 28.164 26.9559 27.828 27.0839 27.668C27.2119 27.5 27.4079 27.416 27.6719 27.416C27.7759 27.416 27.8359 27.452 27.8519 27.524C26.9799 29.284 26.2719 31.156 25.7279 33.14C26.9199 31.276 27.8199 30.344 28.4279 30.344C28.5959 30.344 28.6799 30.4 28.6799 30.512C28.6799 30.584 28.6519 30.664 28.5959 30.752ZM31.8961 34.04C31.8881 34.048 31.8521 34.084 31.7881 34.148C31.7241 34.204 31.6721 34.248 31.6321 34.28C31.5921 34.312 31.5321 34.364 31.4521 34.436C31.3801 34.5 31.3161 34.552 31.2601 34.592C31.2041 34.632 31.1361 34.68 31.0561 34.736C30.9761 34.792 30.9041 34.836 30.8401 34.868C30.7841 34.892 30.7241 34.916 30.6601 34.94C30.5961 34.964 30.5361 34.976 30.4801 34.976C30.3121 34.976 30.2121 34.876 30.1801 34.676C30.1801 34.34 30.3121 33.72 30.5761 32.816C29.5041 34.296 28.7361 35.036 28.2721 35.036C28.0801 35.036 27.9841 34.892 27.9841 34.604C27.9841 34.236 28.0921 33.74 28.3081 33.116C28.5321 32.484 28.8041 31.916 29.1241 31.412C29.4441 30.9 29.7241 30.644 29.9641 30.644H30.0001L30.1321 30.548C30.2041 30.468 30.3161 30.428 30.4681 30.428C30.5881 30.428 30.7561 30.46 30.9721 30.524C31.1881 30.588 31.3081 30.62 31.3321 30.62C31.3641 30.62 31.4041 30.588 31.4521 30.524C31.5081 30.46 31.5721 30.428 31.6441 30.428C31.8441 30.428 31.9441 30.516 31.9441 30.692C31.9441 30.764 31.9281 30.844 31.8961 30.932C31.8721 31.02 31.8321 31.124 31.7761 31.244C31.7281 31.356 31.7001 31.424 31.6921 31.448C31.6841 31.464 31.6441 31.488 31.5721 31.52C31.5081 31.552 31.4721 31.58 31.4641 31.604C31.2881 32.1 31.1321 32.632 30.9961 33.2C30.8601 33.76 30.7921 34.104 30.7921 34.232C30.7921 34.432 30.8481 34.532 30.9601 34.532C31.0721 34.532 31.2081 34.464 31.3681 34.328C31.5361 34.192 31.6801 34.056 31.8001 33.92C31.9201 33.784 31.9841 33.716 31.9921 33.716C32.0081 33.716 32.0161 33.732 32.0161 33.764C32.0161 33.884 31.9761 33.976 31.8961 34.04ZM31.1041 30.848C31.0561 30.848 30.9721 30.84 30.8521 30.824C30.7401 30.808 30.6441 30.8 30.5641 30.8C30.4521 30.8 30.3321 30.816 30.2041 30.848C30.0041 30.904 29.6761 31.38 29.2201 32.276C28.7641 33.164 28.5361 33.828 28.5361 34.268C28.5361 34.404 28.5761 34.472 28.6561 34.472C28.8241 34.472 29.1201 34.228 29.5441 33.74C29.9761 33.252 30.2601 32.904 30.3961 32.696C30.5961 32.376 30.7801 32.032 30.9481 31.664C31.1161 31.288 31.2001 31.04 31.2001 30.92C31.2001 30.872 31.1801 30.848 31.1401 30.848H31.1041ZM38.0913 30.644C37.1233 32.356 36.5393 33.736 36.3393 34.784C36.3153 34.864 36.3033 34.944 36.3033 35.024C36.3033 35.136 36.3393 35.192 36.4113 35.192C36.4433 35.192 36.5233 35.152 36.6513 35.072C36.7873 35 36.8673 34.964 36.8913 34.964C36.9313 34.964 36.9513 34.988 36.9513 35.036C36.9513 35.14 36.8633 35.248 36.6873 35.36C36.5113 35.472 36.3353 35.528 36.1593 35.528C36.0393 35.528 35.9513 35.488 35.8953 35.408C35.8393 35.336 35.8113 35.208 35.8113 35.024C35.8113 34.84 35.8513 34.608 35.9313 34.328C36.0113 34.048 36.0913 33.812 36.1713 33.62C36.2513 33.42 36.3633 33.156 36.5073 32.828C36.6593 32.5 36.7473 32.304 36.7713 32.24C37.0193 31.656 37.1433 31.308 37.1433 31.196C37.1433 31.14 37.1233 31.112 37.0833 31.112C37.0593 31.112 37.0153 31.132 36.9513 31.172C36.5353 31.452 36.0953 31.904 35.6313 32.528C35.1673 33.152 34.8233 33.88 34.5993 34.712C34.5833 34.776 34.4993 34.852 34.3473 34.94C34.1953 35.02 34.0673 35.06 33.9633 35.06C33.8673 35.06 33.8193 35.024 33.8193 34.952V34.928L33.8313 34.904C34.0553 33.848 34.4313 32.62 34.9593 31.22C34.9993 31.116 35.0193 31.044 35.0193 31.004C35.0193 30.964 35.0073 30.944 34.9833 30.944C34.9433 30.944 34.8833 30.988 34.8033 31.076C34.2913 31.668 33.8393 32.256 33.4473 32.84C33.0553 33.424 32.7793 33.868 32.6193 34.172C32.4673 34.476 32.3153 34.724 32.1633 34.916C32.0113 35.108 31.8513 35.204 31.6833 35.204C31.6193 35.204 31.5873 35.172 31.5873 35.108C31.5873 35.052 31.6033 34.98 31.6353 34.892C31.6753 34.804 31.7153 34.716 31.7553 34.628C31.8033 34.54 31.8313 34.488 31.8393 34.472C31.9673 34.16 32.2313 33.38 32.6313 32.132C32.6633 32.036 32.6793 31.964 32.6793 31.916C32.6793 31.884 32.6713 31.856 32.6553 31.832C32.6473 31.8 32.6433 31.776 32.6433 31.76C32.6433 31.728 32.6553 31.676 32.6793 31.604C32.8553 31.1 33.0113 30.764 33.1473 30.596C33.2833 30.428 33.4793 30.344 33.7353 30.344C33.8393 30.344 33.8993 30.38 33.9153 30.452C33.2593 31.796 32.8673 32.756 32.7393 33.332C34.0753 31.204 35.0873 30.14 35.7753 30.14C35.9353 30.14 36.0153 30.192 36.0153 30.296C36.0153 30.368 35.9873 30.448 35.9313 30.536C35.2353 31.712 34.7953 32.748 34.6113 33.644C35.0033 32.868 35.3753 32.268 35.7273 31.844C36.0873 31.412 36.6193 30.94 37.3233 30.428C37.4753 30.308 37.6753 30.248 37.9233 30.248C38.0833 30.248 38.1633 30.304 38.1633 30.416C38.1633 30.472 38.1393 30.548 38.0913 30.644ZM43.7007 30.644C42.7327 32.356 42.1487 33.736 41.9487 34.784C41.9247 34.864 41.9127 34.944 41.9127 35.024C41.9127 35.136 41.9487 35.192 42.0207 35.192C42.0527 35.192 42.1327 35.152 42.2607 35.072C42.3967 35 42.4767 34.964 42.5007 34.964C42.5407 34.964 42.5607 34.988 42.5607 35.036C42.5607 35.14 42.4727 35.248 42.2967 35.36C42.1207 35.472 41.9447 35.528 41.7687 35.528C41.6487 35.528 41.5607 35.488 41.5047 35.408C41.4487 35.336 41.4207 35.208 41.4207 35.024C41.4207 34.84 41.4607 34.608 41.5407 34.328C41.6207 34.048 41.7007 33.812 41.7807 33.62C41.8607 33.42 41.9727 33.156 42.1167 32.828C42.2687 32.5 42.3567 32.304 42.3807 32.24C42.6287 31.656 42.7527 31.308 42.7527 31.196C42.7527 31.14 42.7327 31.112 42.6927 31.112C42.6687 31.112 42.6247 31.132 42.5607 31.172C42.1447 31.452 41.7047 31.904 41.2407 32.528C40.7767 33.152 40.4327 33.88 40.2087 34.712C40.1927 34.776 40.1087 34.852 39.9567 34.94C39.8047 35.02 39.6767 35.06 39.5727 35.06C39.4767 35.06 39.4287 35.024 39.4287 34.952V34.928L39.4407 34.904C39.6647 33.848 40.0407 32.62 40.5687 31.22C40.6087 31.116 40.6287 31.044 40.6287 31.004C40.6287 30.964 40.6167 30.944 40.5927 30.944C40.5527 30.944 40.4927 30.988 40.4127 31.076C39.9007 31.668 39.4487 32.256 39.0567 32.84C38.6647 33.424 38.3887 33.868 38.2287 34.172C38.0767 34.476 37.9247 34.724 37.7727 34.916C37.6207 35.108 37.4607 35.204 37.2927 35.204C37.2287 35.204 37.1967 35.172 37.1967 35.108C37.1967 35.052 37.2127 34.98 37.2447 34.892C37.2847 34.804 37.3247 34.716 37.3647 34.628C37.4127 34.54 37.4407 34.488 37.4487 34.472C37.5767 34.16 37.8407 33.38 38.2407 32.132C38.2727 32.036 38.2887 31.964 38.2887 31.916C38.2887 31.884 38.2807 31.856 38.2647 31.832C38.2567 31.8 38.2527 31.776 38.2527 31.76C38.2527 31.728 38.2647 31.676 38.2887 31.604C38.4647 31.1 38.6207 30.764 38.7567 30.596C38.8927 30.428 39.0887 30.344 39.3447 30.344C39.4487 30.344 39.5087 30.38 39.5247 30.452C38.8687 31.796 38.4767 32.756 38.3487 33.332C39.6847 31.204 40.6967 30.14 41.3847 30.14C41.5447 30.14 41.6247 30.192 41.6247 30.296C41.6247 30.368 41.5967 30.448 41.5407 30.536C40.8447 31.712 40.4047 32.748 40.2207 33.644C40.6127 32.868 40.9847 32.268 41.3367 31.844C41.6967 31.412 42.2287 30.94 42.9327 30.428C43.0847 30.308 43.2847 30.248 43.5327 30.248C43.6927 30.248 43.7727 30.304 43.7727 30.416C43.7727 30.472 43.7487 30.548 43.7007 30.644ZM46.8141 34.04C46.8061 34.048 46.7701 34.084 46.7061 34.148C46.6421 34.204 46.5901 34.248 46.5501 34.28C46.5101 34.312 46.4501 34.364 46.3701 34.436C46.2981 34.5 46.2341 34.552 46.1781 34.592C46.1221 34.632 46.0541 34.68 45.9741 34.736C45.8941 34.792 45.8221 34.836 45.7581 34.868C45.7021 34.892 45.6421 34.916 45.5781 34.94C45.5141 34.964 45.4541 34.976 45.3981 34.976C45.2301 34.976 45.1301 34.876 45.0981 34.676C45.0981 34.34 45.2301 33.72 45.4941 32.816C44.4221 34.296 43.6541 35.036 43.1901 35.036C42.9981 35.036 42.9021 34.892 42.9021 34.604C42.9021 34.236 43.0101 33.74 43.2261 33.116C43.4501 32.484 43.7221 31.916 44.0421 31.412C44.3621 30.9 44.6421 30.644 44.8821 30.644H44.9181L45.0501 30.548C45.1221 30.468 45.2341 30.428 45.3861 30.428C45.5061 30.428 45.6741 30.46 45.8901 30.524C46.1061 30.588 46.2261 30.62 46.2501 30.62C46.2821 30.62 46.3221 30.588 46.3701 30.524C46.4261 30.46 46.4901 30.428 46.5621 30.428C46.7621 30.428 46.8621 30.516 46.8621 30.692C46.8621 30.764 46.8461 30.844 46.8141 30.932C46.7901 31.02 46.7501 31.124 46.6941 31.244C46.6461 31.356 46.6181 31.424 46.6101 31.448C46.6021 31.464 46.5621 31.488 46.4901 31.52C46.4261 31.552 46.3901 31.58 46.3821 31.604C46.2061 32.1 46.0501 32.632 45.9141 33.2C45.7781 33.76 45.7101 34.104 45.7101 34.232C45.7101 34.432 45.7661 34.532 45.8781 34.532C45.9901 34.532 46.1261 34.464 46.2861 34.328C46.4541 34.192 46.5981 34.056 46.7181 33.92C46.8381 33.784 46.9021 33.716 46.9101 33.716C46.9261 33.716 46.9341 33.732 46.9341 33.764C46.9341 33.884 46.8941 33.976 46.8141 34.04ZM46.0221 30.848C45.9741 30.848 45.8901 30.84 45.7701 30.824C45.6581 30.808 45.5621 30.8 45.4821 30.8C45.3701 30.8 45.2501 30.816 45.1221 30.848C44.9221 30.904 44.5941 31.38 44.1381 32.276C43.6821 33.164 43.4541 33.828 43.4541 34.268C43.4541 34.404 43.4941 34.472 43.5741 34.472C43.7421 34.472 44.0381 34.228 44.4621 33.74C44.8941 33.252 45.1781 32.904 45.3141 32.696C45.5141 32.376 45.6981 32.032 45.8661 31.664C46.0341 31.288 46.1181 31.04 46.1181 30.92C46.1181 30.872 46.0981 30.848 46.0581 30.848H46.0221ZM51.6413 27.224C51.6653 27.24 51.6773 27.276 51.6773 27.332C51.6773 27.46 51.6133 27.7 51.4853 28.052C51.3653 28.396 51.1933 28.848 50.9693 29.408C50.7533 29.96 50.5853 30.412 50.4653 30.764C50.4733 30.756 50.4813 30.752 50.4893 30.752C50.5213 30.752 50.5533 30.78 50.5853 30.836C50.6253 30.892 50.6453 30.944 50.6453 30.992C50.6453 31.04 50.6053 31.064 50.5253 31.064C50.4213 31.064 50.3653 31.052 50.3573 31.028C50.1973 31.388 49.9933 31.972 49.7453 32.78C49.5053 33.588 49.3853 34.084 49.3853 34.268C49.3853 34.452 49.4373 34.544 49.5413 34.544C49.6613 34.544 49.8013 34.476 49.9613 34.34C50.1213 34.196 50.2613 34.052 50.3813 33.908C50.5093 33.764 50.5853 33.692 50.6093 33.692C50.6333 33.692 50.6453 33.712 50.6453 33.752C50.6453 33.776 50.6373 33.808 50.6213 33.848C50.6133 33.888 50.6013 33.924 50.5853 33.956C50.5773 33.98 50.5693 33.992 50.5613 33.992C50.3773 34.176 50.1213 34.388 49.7933 34.628C49.4653 34.86 49.2093 34.976 49.0253 34.976C48.8733 34.976 48.7973 34.892 48.7973 34.724C48.7973 34.292 48.9493 33.632 49.2533 32.744C48.9093 33.232 48.4893 33.744 47.9933 34.28C47.5053 34.816 47.1213 35.084 46.8413 35.084C46.6733 35.084 46.5893 34.964 46.5893 34.724C46.5893 34.38 46.7093 33.884 46.9493 33.236C47.1893 32.58 47.4733 31.988 47.8013 31.46C48.1373 30.924 48.4173 30.656 48.6413 30.656H48.6893C48.7453 30.656 48.8093 30.628 48.8813 30.572C48.9613 30.508 49.0453 30.476 49.1333 30.476C49.2533 30.476 49.4213 30.508 49.6373 30.572C49.8613 30.636 49.9813 30.668 49.9973 30.668C50.0053 30.668 50.0093 30.664 50.0093 30.656C50.5853 29.104 50.8813 28.304 50.8973 28.256C50.8093 28.256 50.7653 28.208 50.7653 28.112C50.7653 27.888 50.8853 27.596 51.1253 27.236C51.1573 27.172 51.2213 27.14 51.3173 27.14C51.4213 27.14 51.5293 27.168 51.6413 27.224ZM49.9253 30.932C49.9253 30.844 49.6893 30.8 49.2173 30.8C49.0813 30.8 48.9813 30.808 48.9173 30.824C48.7413 30.872 48.4013 31.356 47.8973 32.276C47.4013 33.196 47.1533 33.868 47.1533 34.292C47.1533 34.42 47.1933 34.484 47.2733 34.484C47.3533 34.484 47.4693 34.42 47.6213 34.292C47.7733 34.164 47.9133 34.028 48.0413 33.884C48.1693 33.74 48.3093 33.584 48.4613 33.416C48.6133 33.24 48.6933 33.144 48.7013 33.128C48.9173 32.888 49.1133 32.608 49.2893 32.288C49.4733 31.96 49.6213 31.656 49.7333 31.376C49.8533 31.096 49.9173 30.948 49.9253 30.932Z" fill="#696969" fill-opacity="0.75"/>
</svg>
