<svg width="42" height="11" viewBox="0 0 42 11" fill="none" xmlns="http://www.w3.org/2000/svg">
<path d="M11.2523 0.836C11.4843 0.836 11.6003 1.368 11.6003 2.432C11.6003 2.92 11.5643 3.42 11.4923 3.932C11.4203 4.436 11.3123 4.932 11.1683 5.42C11.0323 5.9 10.8683 6.372 10.6763 6.836C10.4843 7.3 10.2683 7.744 10.0283 8.168C10.4683 7.824 10.9283 7.56 11.4083 7.376C11.4803 7.344 11.5403 7.324 11.5883 7.316C11.6443 7.3 11.6883 7.292 11.7203 7.292C11.7523 7.3 11.7683 7.308 11.7683 7.316C11.7683 7.38 11.6603 7.484 11.4443 7.628C11.3083 7.716 11.1643 7.824 11.0123 7.952C10.8603 8.08 10.7243 8.2 10.6043 8.312C10.4843 8.424 10.3603 8.536 10.2323 8.648C10.1043 8.768 9.9883 8.868 9.8843 8.948C9.7803 9.028 9.6763 9.092 9.5723 9.14C9.4683 9.196 9.3763 9.224 9.2963 9.224C9.2563 9.224 9.2083 9.212 9.1523 9.188C9.1043 9.172 9.0603 9.144 9.0203 9.104C8.9803 9.064 8.9603 9.02 8.9603 8.972C8.9603 8.868 9.0763 8.74 9.3083 8.588C9.5483 8.436 9.6723 8.348 9.6803 8.324C9.8883 7.828 10.0563 7.404 10.1843 7.052C10.3123 6.7 10.4483 6.284 10.5923 5.804C10.7443 5.324 10.8563 4.852 10.9283 4.388C11.0083 3.924 11.0483 3.464 11.0483 3.008C11.0483 2.664 11.0243 2.324 10.9763 1.988C10.9203 2.068 10.7963 2.272 10.6043 2.6C10.4203 2.928 10.2043 3.296 9.9563 3.704C9.7083 4.112 9.4603 4.492 9.2123 4.844C7.7803 6.876 6.7243 7.896 6.0443 7.904C5.7483 7.904 5.5323 7.72 5.3963 7.352C5.2603 6.976 5.1923 6.468 5.1923 5.828C5.1923 4.54 5.3883 3.068 5.7803 1.412C5.4043 1.924 5.0123 2.508 4.6043 3.164C4.2043 3.82 3.7723 4.58 3.3083 5.444C2.8523 6.308 2.4763 7.192 2.1803 8.096C1.8923 9 1.7483 9.8 1.7483 10.496V10.508C1.7243 10.628 1.6883 10.688 1.6403 10.688C1.5683 10.688 1.5003 10.596 1.4363 10.412C1.3723 10.228 1.3403 10.048 1.3403 9.872C1.3403 9.328 1.5323 8.58 1.9163 7.628C2.3003 6.676 2.7443 5.752 3.2483 4.856C3.7603 3.952 4.2363 3.152 4.6763 2.456C5.1243 1.752 5.4363 1.296 5.6123 1.088C5.5723 1.08 5.4883 1.06 5.3603 1.028C5.2323 0.996 5.1083 0.968 4.9883 0.944C4.8683 0.912 4.7163 0.876 4.5323 0.836C4.3483 0.796 4.1723 0.763999 4.0043 0.74C3.8443 0.716 3.6603 0.696 3.4523 0.68C3.2523 0.656 3.0643 0.644 2.8883 0.644C2.5523 0.644 2.2363 0.704 1.9403 0.823999C1.6523 0.935999 1.4203 1.1 1.2443 1.316C1.0683 1.524 0.980297 1.756 0.980297 2.012C0.980297 2.332 1.1363 2.664 1.4483 3.008C1.7603 3.344 2.2523 3.664 2.9243 3.968C3.0683 4.032 3.1483 4.1 3.1643 4.172C3.1643 4.18 3.1563 4.188 3.1403 4.196C3.1323 4.204 3.1163 4.208 3.0923 4.208C3.0523 4.208 3.0043 4.204 2.9483 4.196C2.9003 4.18 2.8363 4.164 2.7563 4.148C2.1723 4.004 1.6883 3.72 1.3043 3.296C0.928297 2.872 0.720297 2.456 0.680297 2.048C0.680297 2.032 0.676297 2.016 0.668297 2C0.668297 1.976 0.668297 1.956 0.668297 1.94C0.668297 1.916 0.668297 1.896 0.668297 1.88C0.668297 1.856 0.668297 1.836 0.668297 1.82C0.668297 1.804 0.668297 1.788 0.668297 1.772C0.668297 0.716 1.4283 0.188 2.9483 0.188C3.8683 0.188 4.9523 0.368 6.2003 0.728C6.3443 0.768 6.4163 0.876 6.4163 1.052C6.4163 1.14 6.3843 1.336 6.3203 1.64C5.9443 3.4 5.7563 4.772 5.7563 5.756C5.7563 5.98 5.7643 6.18 5.7803 6.356C5.8043 6.532 5.8363 6.688 5.8763 6.824C5.9243 6.952 5.9883 7.052 6.0683 7.124C6.1483 7.196 6.2443 7.232 6.3563 7.232C6.8763 7.232 7.7323 6.388 8.9243 4.7C9.3643 4.068 9.7683 3.424 10.1363 2.768C10.5043 2.112 10.7403 1.648 10.8443 1.376C10.9883 1.016 11.1243 0.836 11.2523 0.836ZM15.117 4.424C15.269 4.448 15.345 4.492 15.345 4.556C15.345 4.62 15.285 4.684 15.165 4.748C15.045 4.804 14.937 4.832 14.841 4.832C14.841 5.768 14.597 6.568 14.109 7.232C13.621 7.896 13.137 8.228 12.657 8.228C12.193 8.228 11.961 7.892 11.961 7.22C11.961 7.036 11.977 6.852 12.009 6.668C12.049 6.46 12.121 6.192 12.225 5.864C12.329 5.536 12.465 5.18 12.633 4.796C12.801 4.412 13.005 4.088 13.245 3.824C13.493 3.552 13.741 3.416 13.989 3.416H14.073C14.073 3.304 14.105 3.208 14.169 3.128C14.233 3.048 14.321 3.008 14.433 3.008C14.545 3.016 14.645 3.252 14.733 3.716C14.821 4.172 14.949 4.408 15.117 4.424ZM14.505 4.736C14.433 4.696 14.345 4.556 14.241 4.316C14.137 4.068 14.065 3.944 14.025 3.944C13.777 3.944 13.489 4.312 13.161 5.048C12.833 5.776 12.629 6.352 12.549 6.776C12.517 6.96 12.501 7.128 12.501 7.28C12.501 7.672 12.613 7.868 12.837 7.868C13.157 7.868 13.513 7.544 13.905 6.896C14.305 6.24 14.505 5.52 14.505 4.736ZM18.5959 3.752C18.1639 4.448 17.7599 5.224 17.3839 6.08C17.0159 6.928 16.8319 7.588 16.8319 8.06C16.8319 8.172 16.8639 8.228 16.9279 8.228C16.9519 8.228 17.0199 8.192 17.1319 8.12C17.2519 8.048 17.3239 8.012 17.3479 8.012C17.3879 8.012 17.4079 8.036 17.4079 8.084C17.4079 8.18 17.3319 8.28 17.1799 8.384C17.0279 8.496 16.8799 8.552 16.7359 8.552C16.5359 8.552 16.4359 8.404 16.4359 8.108C16.4359 7.764 16.5479 7.28 16.7719 6.656C16.9959 6.024 17.2199 5.452 17.4439 4.94C17.6679 4.42 17.7799 4.128 17.7799 4.064C17.7799 4.048 17.7759 4.04 17.7679 4.04C17.7359 4.04 17.6639 4.1 17.5519 4.22C17.0479 4.788 16.6239 5.344 16.2799 5.888C15.9359 6.424 15.7039 6.836 15.5839 7.124C15.4719 7.412 15.3519 7.644 15.2239 7.82C15.1039 7.988 14.9599 8.072 14.7919 8.072C14.7199 8.072 14.6839 8.032 14.6839 7.952C14.6839 7.88 14.7039 7.8 14.7439 7.712C14.9599 7.152 15.1679 6.572 15.3679 5.972C15.5679 5.372 15.7799 4.704 16.0039 3.968C16.2359 3.224 16.4239 2.636 16.5679 2.204C16.5919 2.132 16.6039 2.06 16.6039 1.988C16.6039 1.956 16.5999 1.928 16.5919 1.904C16.5839 1.872 16.5799 1.848 16.5799 1.832C16.5799 1.8 16.5919 1.748 16.6159 1.676C16.7999 1.164 16.9559 0.828 17.0839 0.668C17.2119 0.5 17.4079 0.416 17.6719 0.416C17.7759 0.416 17.8359 0.452 17.8519 0.524C16.9799 2.284 16.2719 4.156 15.7279 6.14C16.9199 4.276 17.8199 3.344 18.4279 3.344C18.5959 3.344 18.6799 3.4 18.6799 3.512C18.6799 3.584 18.6519 3.664 18.5959 3.752ZM21.8961 7.04C21.8881 7.048 21.8521 7.084 21.7881 7.148C21.7241 7.204 21.6721 7.248 21.6321 7.28C21.5921 7.312 21.5321 7.364 21.4521 7.436C21.3801 7.5 21.3161 7.552 21.2601 7.592C21.2041 7.632 21.1361 7.68 21.0561 7.736C20.9761 7.792 20.9041 7.836 20.8401 7.868C20.7841 7.892 20.7241 7.916 20.6601 7.94C20.5961 7.964 20.5361 7.976 20.4801 7.976C20.3121 7.976 20.2121 7.876 20.1801 7.676C20.1801 7.34 20.3121 6.72 20.5761 5.816C19.5041 7.296 18.7361 8.036 18.2721 8.036C18.0801 8.036 17.9841 7.892 17.9841 7.604C17.9841 7.236 18.0921 6.74 18.3081 6.116C18.5321 5.484 18.8041 4.916 19.1241 4.412C19.4441 3.9 19.7241 3.644 19.9641 3.644H20.0001L20.1321 3.548C20.2041 3.468 20.3161 3.428 20.4681 3.428C20.5881 3.428 20.7561 3.46 20.9721 3.524C21.1881 3.588 21.3081 3.62 21.3321 3.62C21.3641 3.62 21.4041 3.588 21.4521 3.524C21.5081 3.46 21.5721 3.428 21.6441 3.428C21.8441 3.428 21.9441 3.516 21.9441 3.692C21.9441 3.764 21.9281 3.844 21.8961 3.932C21.8721 4.02 21.8321 4.124 21.7761 4.244C21.7281 4.356 21.7001 4.424 21.6921 4.448C21.6841 4.464 21.6441 4.488 21.5721 4.52C21.5081 4.552 21.4721 4.58 21.4641 4.604C21.2881 5.1 21.1321 5.632 20.9961 6.2C20.8601 6.76 20.7921 7.104 20.7921 7.232C20.7921 7.432 20.8481 7.532 20.9601 7.532C21.0721 7.532 21.2081 7.464 21.3681 7.328C21.5361 7.192 21.6801 7.056 21.8001 6.92C21.9201 6.784 21.9841 6.716 21.9921 6.716C22.0081 6.716 22.0161 6.732 22.0161 6.764C22.0161 6.884 21.9761 6.976 21.8961 7.04ZM21.1041 3.848C21.0561 3.848 20.9721 3.84 20.8521 3.824C20.7401 3.808 20.6441 3.8 20.5641 3.8C20.4521 3.8 20.3321 3.816 20.2041 3.848C20.0041 3.904 19.6761 4.38 19.2201 5.276C18.7641 6.164 18.5361 6.828 18.5361 7.268C18.5361 7.404 18.5761 7.472 18.6561 7.472C18.8241 7.472 19.1201 7.228 19.5441 6.74C19.9761 6.252 20.2601 5.904 20.3961 5.696C20.5961 5.376 20.7801 5.032 20.9481 4.664C21.1161 4.288 21.2001 4.04 21.2001 3.92C21.2001 3.872 21.1801 3.848 21.1401 3.848H21.1041ZM28.0913 3.644C27.1233 5.356 26.5393 6.736 26.3393 7.784C26.3153 7.864 26.3033 7.944 26.3033 8.024C26.3033 8.136 26.3393 8.192 26.4113 8.192C26.4433 8.192 26.5233 8.152 26.6513 8.072C26.7873 8 26.8673 7.964 26.8913 7.964C26.9313 7.964 26.9513 7.988 26.9513 8.036C26.9513 8.14 26.8633 8.248 26.6873 8.36C26.5113 8.472 26.3353 8.528 26.1593 8.528C26.0393 8.528 25.9513 8.488 25.8953 8.408C25.8393 8.336 25.8113 8.208 25.8113 8.024C25.8113 7.84 25.8513 7.608 25.9313 7.328C26.0113 7.048 26.0913 6.812 26.1713 6.62C26.2513 6.42 26.3633 6.156 26.5073 5.828C26.6593 5.5 26.7473 5.304 26.7713 5.24C27.0193 4.656 27.1433 4.308 27.1433 4.196C27.1433 4.14 27.1233 4.112 27.0833 4.112C27.0593 4.112 27.0153 4.132 26.9513 4.172C26.5353 4.452 26.0953 4.904 25.6313 5.528C25.1673 6.152 24.8233 6.88 24.5993 7.712C24.5833 7.776 24.4993 7.852 24.3473 7.94C24.1953 8.02 24.0673 8.06 23.9633 8.06C23.8673 8.06 23.8193 8.024 23.8193 7.952V7.928L23.8313 7.904C24.0553 6.848 24.4313 5.62 24.9593 4.22C24.9993 4.116 25.0193 4.044 25.0193 4.004C25.0193 3.964 25.0073 3.944 24.9833 3.944C24.9433 3.944 24.8833 3.988 24.8033 4.076C24.2913 4.668 23.8393 5.256 23.4473 5.84C23.0553 6.424 22.7793 6.868 22.6193 7.172C22.4673 7.476 22.3153 7.724 22.1633 7.916C22.0113 8.108 21.8513 8.204 21.6833 8.204C21.6193 8.204 21.5873 8.172 21.5873 8.108C21.5873 8.052 21.6033 7.98 21.6353 7.892C21.6753 7.804 21.7153 7.716 21.7553 7.628C21.8033 7.54 21.8313 7.488 21.8393 7.472C21.9673 7.16 22.2313 6.38 22.6313 5.132C22.6633 5.036 22.6793 4.964 22.6793 4.916C22.6793 4.884 22.6713 4.856 22.6553 4.832C22.6473 4.8 22.6433 4.776 22.6433 4.76C22.6433 4.728 22.6553 4.676 22.6793 4.604C22.8553 4.1 23.0113 3.764 23.1473 3.596C23.2833 3.428 23.4793 3.344 23.7353 3.344C23.8393 3.344 23.8993 3.38 23.9153 3.452C23.2593 4.796 22.8673 5.756 22.7393 6.332C24.0753 4.204 25.0873 3.14 25.7753 3.14C25.9353 3.14 26.0153 3.192 26.0153 3.296C26.0153 3.368 25.9873 3.448 25.9313 3.536C25.2353 4.712 24.7953 5.748 24.6113 6.644C25.0033 5.868 25.3753 5.268 25.7273 4.844C26.0873 4.412 26.6193 3.94 27.3233 3.428C27.4753 3.308 27.6753 3.248 27.9233 3.248C28.0833 3.248 28.1633 3.304 28.1633 3.416C28.1633 3.472 28.1393 3.548 28.0913 3.644ZM33.7007 3.644C32.7327 5.356 32.1487 6.736 31.9487 7.784C31.9247 7.864 31.9127 7.944 31.9127 8.024C31.9127 8.136 31.9487 8.192 32.0207 8.192C32.0527 8.192 32.1327 8.152 32.2607 8.072C32.3967 8 32.4767 7.964 32.5007 7.964C32.5407 7.964 32.5607 7.988 32.5607 8.036C32.5607 8.14 32.4727 8.248 32.2967 8.36C32.1207 8.472 31.9447 8.528 31.7687 8.528C31.6487 8.528 31.5607 8.488 31.5047 8.408C31.4487 8.336 31.4207 8.208 31.4207 8.024C31.4207 7.84 31.4607 7.608 31.5407 7.328C31.6207 7.048 31.7007 6.812 31.7807 6.62C31.8607 6.42 31.9727 6.156 32.1167 5.828C32.2687 5.5 32.3567 5.304 32.3807 5.24C32.6287 4.656 32.7527 4.308 32.7527 4.196C32.7527 4.14 32.7327 4.112 32.6927 4.112C32.6687 4.112 32.6247 4.132 32.5607 4.172C32.1447 4.452 31.7047 4.904 31.2407 5.528C30.7767 6.152 30.4327 6.88 30.2087 7.712C30.1927 7.776 30.1087 7.852 29.9567 7.94C29.8047 8.02 29.6767 8.06 29.5727 8.06C29.4767 8.06 29.4287 8.024 29.4287 7.952V7.928L29.4407 7.904C29.6647 6.848 30.0407 5.62 30.5687 4.22C30.6087 4.116 30.6287 4.044 30.6287 4.004C30.6287 3.964 30.6167 3.944 30.5927 3.944C30.5527 3.944 30.4927 3.988 30.4127 4.076C29.9007 4.668 29.4487 5.256 29.0567 5.84C28.6647 6.424 28.3887 6.868 28.2287 7.172C28.0767 7.476 27.9247 7.724 27.7727 7.916C27.6207 8.108 27.4607 8.204 27.2927 8.204C27.2287 8.204 27.1967 8.172 27.1967 8.108C27.1967 8.052 27.2127 7.98 27.2447 7.892C27.2847 7.804 27.3247 7.716 27.3647 7.628C27.4127 7.54 27.4407 7.488 27.4487 7.472C27.5767 7.16 27.8407 6.38 28.2407 5.132C28.2727 5.036 28.2887 4.964 28.2887 4.916C28.2887 4.884 28.2807 4.856 28.2647 4.832C28.2567 4.8 28.2527 4.776 28.2527 4.76C28.2527 4.728 28.2647 4.676 28.2887 4.604C28.4647 4.1 28.6207 3.764 28.7567 3.596C28.8927 3.428 29.0887 3.344 29.3447 3.344C29.4487 3.344 29.5087 3.38 29.5247 3.452C28.8687 4.796 28.4767 5.756 28.3487 6.332C29.6847 4.204 30.6967 3.14 31.3847 3.14C31.5447 3.14 31.6247 3.192 31.6247 3.296C31.6247 3.368 31.5967 3.448 31.5407 3.536C30.8447 4.712 30.4047 5.748 30.2207 6.644C30.6127 5.868 30.9847 5.268 31.3367 4.844C31.6967 4.412 32.2287 3.94 32.9327 3.428C33.0847 3.308 33.2847 3.248 33.5327 3.248C33.6927 3.248 33.7727 3.304 33.7727 3.416C33.7727 3.472 33.7487 3.548 33.7007 3.644ZM36.8141 7.04C36.8061 7.048 36.7701 7.084 36.7061 7.148C36.6421 7.204 36.5901 7.248 36.5501 7.28C36.5101 7.312 36.4501 7.364 36.3701 7.436C36.2981 7.5 36.2341 7.552 36.1781 7.592C36.1221 7.632 36.0541 7.68 35.9741 7.736C35.8941 7.792 35.8221 7.836 35.7581 7.868C35.7021 7.892 35.6421 7.916 35.5781 7.94C35.5141 7.964 35.4541 7.976 35.3981 7.976C35.2301 7.976 35.1301 7.876 35.0981 7.676C35.0981 7.34 35.2301 6.72 35.4941 5.816C34.4221 7.296 33.6541 8.036 33.1901 8.036C32.9981 8.036 32.9021 7.892 32.9021 7.604C32.9021 7.236 33.0101 6.74 33.2261 6.116C33.4501 5.484 33.7221 4.916 34.0421 4.412C34.3621 3.9 34.6421 3.644 34.8821 3.644H34.9181L35.0501 3.548C35.1221 3.468 35.2341 3.428 35.3861 3.428C35.5061 3.428 35.6741 3.46 35.8901 3.524C36.1061 3.588 36.2261 3.62 36.2501 3.62C36.2821 3.62 36.3221 3.588 36.3701 3.524C36.4261 3.46 36.4901 3.428 36.5621 3.428C36.7621 3.428 36.8621 3.516 36.8621 3.692C36.8621 3.764 36.8461 3.844 36.8141 3.932C36.7901 4.02 36.7501 4.124 36.6941 4.244C36.6461 4.356 36.6181 4.424 36.6101 4.448C36.6021 4.464 36.5621 4.488 36.4901 4.52C36.4261 4.552 36.3901 4.58 36.3821 4.604C36.2061 5.1 36.0501 5.632 35.9141 6.2C35.7781 6.76 35.7101 7.104 35.7101 7.232C35.7101 7.432 35.7661 7.532 35.8781 7.532C35.9901 7.532 36.1261 7.464 36.2861 7.328C36.4541 7.192 36.5981 7.056 36.7181 6.92C36.8381 6.784 36.9021 6.716 36.9101 6.716C36.9261 6.716 36.9341 6.732 36.9341 6.764C36.9341 6.884 36.8941 6.976 36.8141 7.04ZM36.0221 3.848C35.9741 3.848 35.8901 3.84 35.7701 3.824C35.6581 3.808 35.5621 3.8 35.4821 3.8C35.3701 3.8 35.2501 3.816 35.1221 3.848C34.9221 3.904 34.5941 4.38 34.1381 5.276C33.6821 6.164 33.4541 6.828 33.4541 7.268C33.4541 7.404 33.4941 7.472 33.5741 7.472C33.7421 7.472 34.0381 7.228 34.4621 6.74C34.8941 6.252 35.1781 5.904 35.3141 5.696C35.5141 5.376 35.6981 5.032 35.8661 4.664C36.0341 4.288 36.1181 4.04 36.1181 3.92C36.1181 3.872 36.0981 3.848 36.0581 3.848H36.0221ZM41.6413 0.224C41.6653 0.24 41.6773 0.276 41.6773 0.331999C41.6773 0.46 41.6133 0.7 41.4853 1.052C41.3653 1.396 41.1933 1.848 40.9693 2.408C40.7533 2.96 40.5853 3.412 40.4653 3.764C40.4733 3.756 40.4813 3.752 40.4893 3.752C40.5213 3.752 40.5533 3.78 40.5853 3.836C40.6253 3.892 40.6453 3.944 40.6453 3.992C40.6453 4.04 40.6053 4.064 40.5253 4.064C40.4213 4.064 40.3653 4.052 40.3573 4.028C40.1973 4.388 39.9933 4.972 39.7453 5.78C39.5053 6.588 39.3853 7.084 39.3853 7.268C39.3853 7.452 39.4373 7.544 39.5413 7.544C39.6613 7.544 39.8013 7.476 39.9613 7.34C40.1213 7.196 40.2613 7.052 40.3813 6.908C40.5093 6.764 40.5853 6.692 40.6093 6.692C40.6333 6.692 40.6453 6.712 40.6453 6.752C40.6453 6.776 40.6373 6.808 40.6213 6.848C40.6133 6.888 40.6013 6.924 40.5853 6.956C40.5773 6.98 40.5693 6.992 40.5613 6.992C40.3773 7.176 40.1213 7.388 39.7933 7.628C39.4653 7.86 39.2093 7.976 39.0253 7.976C38.8733 7.976 38.7973 7.892 38.7973 7.724C38.7973 7.292 38.9493 6.632 39.2533 5.744C38.9093 6.232 38.4893 6.744 37.9933 7.28C37.5053 7.816 37.1213 8.084 36.8413 8.084C36.6733 8.084 36.5893 7.964 36.5893 7.724C36.5893 7.38 36.7093 6.884 36.9493 6.236C37.1893 5.58 37.4733 4.988 37.8013 4.46C38.1373 3.924 38.4173 3.656 38.6413 3.656H38.6893C38.7453 3.656 38.8093 3.628 38.8813 3.572C38.9613 3.508 39.0453 3.476 39.1333 3.476C39.2533 3.476 39.4213 3.508 39.6373 3.572C39.8613 3.636 39.9813 3.668 39.9973 3.668C40.0053 3.668 40.0093 3.664 40.0093 3.656C40.5853 2.104 40.8813 1.304 40.8973 1.256C40.8093 1.256 40.7653 1.208 40.7653 1.112C40.7653 0.888 40.8853 0.595999 41.1253 0.236C41.1573 0.172 41.2213 0.14 41.3173 0.14C41.4213 0.14 41.5293 0.168 41.6413 0.224ZM39.9253 3.932C39.9253 3.844 39.6893 3.8 39.2173 3.8C39.0813 3.8 38.9813 3.808 38.9173 3.824C38.7413 3.872 38.4013 4.356 37.8973 5.276C37.4013 6.196 37.1533 6.868 37.1533 7.292C37.1533 7.42 37.1933 7.484 37.2733 7.484C37.3533 7.484 37.4693 7.42 37.6213 7.292C37.7733 7.164 37.9133 7.028 38.0413 6.884C38.1693 6.74 38.3093 6.584 38.4613 6.416C38.6133 6.24 38.6933 6.144 38.7013 6.128C38.9173 5.888 39.1133 5.608 39.2893 5.288C39.4733 4.96 39.6213 4.656 39.7333 4.376C39.8533 4.096 39.9173 3.948 39.9253 3.932Z" fill="#696969" fill-opacity="0.75"/>
</svg>
