<svg width="40" height="40" viewBox="0 0 40 40" fill="none" xmlns="http://www.w3.org/2000/svg">
<path fill-rule="evenodd" clip-rule="evenodd" d="M14.1378 0.301573C11.1577 1.27574 8.51926 2.85804 6.26988 5.02026C4.4582 6.7618 3.23692 8.4122 2.16215 10.5714C-1.75725 18.4456 -0.259697 27.7117 5.93731 33.9304C9.86086 37.8676 15.3083 40.0349 20.7829 39.8367C25.0656 39.6816 28.7184 38.4382 32.1576 35.965C35.8502 33.3094 38.5287 29.4198 39.7784 24.8983C40.0537 23.9022 40.0616 23.7529 39.8622 23.3138C39.6594 22.8671 39.2098 22.6338 38.6426 22.6808C38.3062 22.7087 38.1461 22.781 37.7133 23.0998C36.4835 24.006 35.6921 24.5034 34.7375 24.9698C32.524 26.0516 30.6136 26.4955 28.1765 26.4944C24.1518 26.4927 20.419 24.9529 17.5796 22.123C14.7059 19.2591 13.1615 15.5466 13.1702 11.524C13.1778 8.05884 14.1927 4.96616 16.1419 2.46872C16.6322 1.84056 16.7737 1.4263 16.6449 0.996332C16.4671 0.40289 15.92 -0.0139492 15.3378 0.000357209C15.1723 0.00442241 14.6323 0.139981 14.1378 0.301573ZM11.9167 4.78127C11.3053 6.24247 10.8772 7.88177 10.6966 9.45234C10.5859 10.4142 10.5857 12.6578 10.6961 13.5566C11.4325 19.5532 15.1037 24.7552 20.4311 27.3509C22.8892 28.5486 25.0077 29.0621 27.7797 29.1321C30.5607 29.2023 32.6712 28.7997 35.3168 27.6941C35.7645 27.507 36.1467 27.37 36.1662 27.3894C36.2281 27.4513 35.2294 29.0536 34.6133 29.8808C31.1704 34.5035 26.0217 37.127 20.3922 37.127C16.4416 37.127 12.9778 35.9804 9.81074 33.6242C7.65517 32.0205 5.81739 29.7976 4.57727 27.2939C3.33191 24.7794 2.7842 22.4142 2.79022 19.5763C2.79546 17.1109 3.14131 15.2451 3.99282 13.0876C5.26663 9.86011 7.60483 6.96162 10.5026 5.01791C11.0609 4.64352 12.1614 3.98543 12.2372 3.98081C12.2453 3.98035 12.101 4.34051 11.9167 4.78127Z" fill="white"/>
</svg>
