<svg width="20" height="28" viewBox="0 0 20 28" fill="none" xmlns="http://www.w3.org/2000/svg">
<path fill-rule="evenodd" clip-rule="evenodd" d="M9.08799 0.0363537C4.26513 0.499214 0.486551 4.3185 0.0577333 9.164C-0.0192444 10.0335 -0.0192444 17.4111 0.0577333 18.2806C0.331191 21.3703 1.91356 24.0533 4.47231 25.7657C7.03907 27.4835 10.3245 27.9122 13.2258 26.9079C16.9954 25.6032 19.589 22.2716 19.9422 18.2806C20.0203 17.3984 20.0188 10.095 19.9404 9.18904C19.5891 5.13186 16.9321 1.7587 13.095 0.498688C11.8658 0.0950813 10.3267 -0.082564 9.08799 0.0363537ZM11.5793 2.66079C13.502 3.09914 15.1463 4.22573 16.2411 5.8549C16.7345 6.58917 17.1389 7.56098 17.3487 8.51636C17.4503 8.97887 17.4579 9.34229 17.4579 13.7223C17.4579 18.1023 17.4503 18.4657 17.3487 18.9282C17.1389 19.8836 16.7345 20.8554 16.2411 21.5897C15.913 22.0778 15.7916 22.2227 15.2455 22.7775C14.2547 23.784 12.9342 24.4945 11.4623 24.813C10.7247 24.9727 9.17105 24.9605 8.44339 24.7893C5.45495 24.0864 3.30653 21.9123 2.65123 18.9282C2.54962 18.4657 2.54202 18.1023 2.54202 13.7223C2.54202 9.34229 2.54962 8.97887 2.65123 8.51636C3.08806 6.52705 4.21903 4.8512 5.87616 3.7376C6.7731 3.13488 8.07085 2.65652 9.15181 2.53023C9.65778 2.4711 11.0835 2.54778 11.5793 2.66079ZM9.53202 6.32834C9.26763 6.44287 9.02359 6.67644 8.88321 6.94931C8.77792 7.15404 8.7716 7.32613 8.7716 9.9787C8.7716 12.6313 8.77792 12.8034 8.88321 13.0081C9.37332 13.9608 10.6731 13.951 11.1174 12.9911C11.218 12.7738 11.2259 12.5579 11.227 9.96174C11.2283 7.32443 11.222 7.15404 11.1167 6.94931C10.8088 6.35069 10.1114 6.07741 9.53202 6.32834Z" fill="white"/>
</svg>
