<svg class="svg-icon" style="width: 1em; height: 1em;vertical-align: middle;fill: currentColor;overflow: hidden;" viewBox="0 0 1024 1024" version="1.1" xmlns="http://www.w3.org/2000/svg"><path d="M379.632 262.448l0 77.44 0 80.928 0 227.776c-20.288-12.432-44.064-19.728-69.6-19.728-73.792 0-133.648 59.84-133.648 133.584 0 73.824 59.84 133.664 133.648 133.664 73.76 0 133.584-59.824 133.6-133.632l0 0L443.632 402.416l340-97.744L783.632 533.28c-20.288-12.432-44.064-19.728-69.6-19.728-73.824 0-133.648 59.824-133.648 133.568 0 73.808 59.824 133.664 133.648 133.664 69.504 0 126.624-53.2 132.96-121.12l0.64 0L847.632 286.272l0-57.376L847.632 127.888 379.632 262.448z"  /></svg>