<svg width="512" height="512" viewBox="0 0 512 512" fill="none" xmlns="http://www.w3.org/2000/svg">
<path fill-rule="evenodd" clip-rule="evenodd" d="M249.067 1.24713C245.215 3.04413 242.045 6.10213 239.828 10.1581C238.255 13.0351 238.067 16.6551 238.067 44.0431V74.7071L241.067 78.9391C244.8 84.2061 249.681 86.8791 255.567 86.8791C261.453 86.8791 266.334 84.2061 270.067 78.9391L273.067 74.7071V44.0431C273.067 13.8631 273.031 13.3161 270.764 9.36213C266.321 1.61413 256.307 -2.13187 249.067 1.24713ZM78.8071 71.9891C69.2561 76.7171 66.4831 87.5351 72.3781 97.0741C73.5051 98.8971 83.3471 109.205 94.2471 119.979C108.919 134.48 115.061 139.896 117.892 140.826C131.463 145.287 144.519 131.625 139.519 118.194C137.986 114.074 97.9481 74.0841 93.0671 71.7971C87.8461 69.3511 84.0341 69.4021 78.8071 71.9891ZM418.067 71.7421C413.162 74.1081 373.121 114.149 371.615 118.194C369.201 124.678 371.037 132.244 376.194 137.065C381.214 141.759 385.813 142.771 393.025 140.769C396.198 139.888 400.927 135.773 416.868 120.025C427.804 109.22 437.876 98.4701 439.25 96.1371C447.733 81.7301 432.863 64.6051 418.067 71.7421ZM243.567 127.919C182.473 133.391 133.369 183.027 127.614 245.129C123.417 290.416 145.857 336.917 184.22 362.43C238.519 398.541 310.452 388.964 352.172 340.069C370.723 318.327 380.947 294.394 383.513 266.702C389.99 196.8 337.284 134.51 266.067 127.901C260.017 127.34 254.392 126.943 253.567 127.019C252.742 127.095 248.242 127.5 243.567 127.919ZM281.855 166.256C313.457 175.736 335.438 197.692 345.26 229.591C347.763 237.721 347.966 239.689 347.966 255.879C347.966 272.069 347.763 274.037 345.26 282.167C340.15 298.762 331.836 312.582 320.431 323.436C309.468 333.871 297.44 340.773 281.855 345.572C273.725 348.075 271.757 348.278 255.567 348.278C239.377 348.278 237.409 348.075 229.279 345.572C197.406 335.758 175.688 314.04 165.874 282.167C163.371 274.037 163.168 272.069 163.168 255.879C163.168 239.689 163.371 237.721 165.874 229.591C176.493 195.104 201.137 172.402 236.68 164.365C241.19 163.345 247.475 163.024 258.067 163.271C270.725 163.566 274.439 164.032 281.855 166.256ZM13.9981 238.784C12.3091 239.207 9.5891 240.344 7.9521 241.311C-3.2169 247.908 -2.4649 265.667 9.2281 271.473C12.7531 273.223 15.5791 273.379 43.7311 273.379H74.3951L78.6271 270.379C83.8941 266.646 86.5671 261.765 86.5671 255.879C86.5671 249.995 83.8951 245.113 78.6301 241.379L74.3991 238.379L45.7331 238.197C29.9671 238.097 15.6861 238.361 13.9981 238.784ZM437.831 238.818C430.145 240.724 424.567 247.969 424.567 256.046C424.567 261.772 427.284 266.678 432.507 270.379L436.739 273.379H467.403C497.583 273.379 498.13 273.343 502.084 271.076C508.187 267.577 511.067 262.704 511.067 255.879C511.067 249.054 508.187 244.181 502.084 240.682C498.172 238.439 497.322 238.374 469.567 238.197C453.892 238.097 439.611 238.377 437.831 238.818ZM117.639 371.044C113.5 372.233 75.8121 408.951 71.8841 415.621C65.6391 426.228 71.7881 439.58 83.8191 441.532C91.1941 442.729 93.7981 440.89 116.426 418.507C128.174 406.887 138.412 395.931 139.176 394.161C141.91 387.835 140.599 380.688 135.753 375.506C130.907 370.323 125.116 368.896 117.639 371.044ZM379.537 372.129C371.817 376.029 368.163 384.183 370.531 392.225C371.527 395.609 375.581 400.244 392.411 417.241C417.788 442.872 421.256 444.853 431.597 439.629C439.317 435.729 442.971 427.575 440.603 419.533C439.607 416.149 435.553 411.514 418.723 394.517C393.346 368.886 389.878 366.905 379.537 372.129ZM247.551 426.732C245.635 427.752 242.717 430.491 241.067 432.819L238.067 437.051V467.715C238.067 497.895 238.103 498.442 240.37 502.396C243.869 508.499 248.742 511.379 255.567 511.379C262.392 511.379 267.265 508.499 270.764 502.396C273.031 498.442 273.067 497.895 273.067 467.715V437.051L270.067 432.819C266.334 427.552 261.453 424.879 255.567 424.879C253.075 424.879 249.468 425.713 247.551 426.732Z" fill="black"/>
</svg>
