<svg width="120" height="120" viewBox="0 0 120 120" fill="none" xmlns="http://www.w3.org/2000/svg">
<path fill-rule="evenodd" clip-rule="evenodd" d="M56.1999 0.0865565C47.1254 1.24531 39.9259 4.58881 33.7991 10.4901C31.0771 13.1118 29.1321 15.4876 27.5039 18.1801L26.5209 19.8051L23.2979 19.9758C21.4289 20.0751 19.2719 20.3568 18.1634 20.6466C6.97486 23.5718 -0.544388 33.6936 0.0308624 45.0551C0.569362 55.6983 7.66536 64.3778 18.1634 67.2338C19.7704 67.6711 21.0209 67.7721 26.0124 67.868L31.9499 67.982V71.3645C31.9499 73.2896 32.0809 75.1906 32.2539 75.776C32.8301 77.7265 35.6349 79.93 37.5414 79.93C37.9024 79.93 37.9499 80.3953 37.9499 83.93V87.93H26.8694H15.7891L15.2019 86.6308C14.4749 85.0223 12.9686 83.4868 11.3249 82.6785C9.55186 81.8065 6.38886 81.8113 4.57486 82.6885C2.98636 83.4568 1.48411 84.9558 0.700112 86.555C-0.179888 88.3498 -0.179888 91.5103 0.700112 93.305C1.48361 94.903 2.98511 96.4023 4.57486 97.1733C5.59586 97.6685 6.21436 97.78 7.94986 97.7823C9.76511 97.7843 10.2611 97.688 11.3516 97.1213C13.2664 96.1263 14.0571 95.3503 14.9844 93.5573L15.8249 91.9318L28.2736 91.931L40.7226 91.93L41.3361 91.3163C41.9499 90.7028 41.9499 90.702 41.9499 85.3163V79.93H43.9499H45.9499V87.93V95.93H37.5636H29.1771L28.5636 96.5438C27.9716 97.1355 27.9496 97.2803 27.9461 100.606L27.9421 104.055L26.2586 104.944C20.4066 108.035 20.6189 116.251 26.6269 119.204C27.5954 119.68 28.2321 119.794 29.9499 119.799C31.9004 119.805 32.2041 119.735 33.6501 118.951C35.4069 117.999 36.1649 117.212 37.1391 115.332C37.6984 114.253 37.8029 113.726 37.8129 111.93C37.8239 109.973 37.7574 109.681 36.9676 108.224C36.0146 106.466 34.9154 105.435 33.1374 104.629L31.9499 104.091V102.011V99.93H40.3361H48.7226L49.3361 99.3163L49.9499 98.7028V89.3163V79.93H53.9499H57.9499L57.9461 89.9925L57.9421 100.055L56.2586 100.944C50.4289 104.024 50.6116 112.256 56.5749 115.18C57.5989 115.682 58.2091 115.794 59.9499 115.799C61.9004 115.805 62.2041 115.735 63.6501 114.951C65.4069 113.999 66.1649 113.212 67.1391 111.332C67.6983 110.253 67.8029 109.726 67.8129 107.93C67.8239 105.973 67.7574 105.681 66.9676 104.224C66.0146 102.466 64.9154 101.435 63.1374 100.629L61.9499 100.091V90.0105V79.93H65.9499H69.9499V89.3163V98.7028L70.5636 99.3163L71.1771 99.93H79.5636H87.9499L87.9461 101.993L87.9421 104.055L86.2586 104.944C80.4066 108.035 80.6189 116.251 86.6269 119.204C87.5954 119.68 88.2321 119.794 89.9499 119.799C91.9004 119.805 92.2041 119.735 93.6501 118.951C95.4069 117.999 96.1648 117.212 97.1391 115.332C97.6983 114.253 97.8029 113.726 97.8129 111.93C97.8239 109.973 97.7574 109.681 96.9676 108.224C96.0146 106.466 94.9154 105.435 93.1374 104.629L91.9499 104.091V100.624C91.9499 97.2766 91.9289 97.1363 91.3361 96.5438L90.7226 95.93H82.3361H73.9499V87.93V79.93H75.9499H77.9499V85.3163C77.9499 90.702 77.9499 90.7028 78.5636 91.3163L79.1771 91.93H91.6439H104.111L104.698 93.2293C105.425 94.8378 106.931 96.3733 108.575 97.1815C109.607 97.689 110.196 97.7958 111.95 97.794C113.887 97.792 114.214 97.717 115.65 96.9443C117.4 96.0025 118.155 95.223 119.148 93.3318C119.723 92.236 119.817 91.7538 119.815 89.93C119.812 87.428 119.222 85.9398 117.581 84.299C115.943 82.661 114.452 82.0686 111.95 82.0613C109.998 82.0555 109.696 82.1248 108.244 82.9123C106.486 83.8653 105.454 84.9645 104.649 86.7425L104.111 87.93H93.0303H81.9499V83.93C81.9499 80.2271 81.9836 79.93 82.4053 79.93C83.6046 79.93 85.2364 79.0878 86.2746 77.933C87.7104 76.3363 87.9499 75.3931 87.9499 71.3385V67.93H94.8028C99.6826 67.93 102.184 67.8281 103.49 67.576C112.25 65.8863 118.649 59.0406 119.769 50.1603C120.691 42.8616 117.108 35.3083 110.752 31.1506C107.376 28.9423 104.302 28.0681 99.8871 28.0606L96.6993 28.0551L96.0451 26.0551C94.2089 20.4413 91.2151 15.6621 86.7164 11.1636C81.0686 5.51556 74.9629 2.21381 67.3106 0.669557C64.8839 0.179807 58.2121 -0.170193 56.1999 0.0865565ZM66.8249 4.63856C79.5329 7.37931 89.3831 16.7188 92.8296 29.2951C93.7116 32.5126 94.1094 32.7876 97.0583 32.2171C108.073 30.0863 117.881 40.1598 115.567 51.2263C114.314 57.2233 109.249 62.3243 103.325 63.5573C101.124 64.0153 87.4499 64.1006 87.4499 63.6561C87.4499 63.5056 87.2171 63.0556 86.9329 62.6561C86.4214 61.9378 86.4211 61.9226 86.8946 61.2426C87.8131 59.9236 87.9499 58.9766 87.9499 53.9301C87.9499 48.8836 87.8131 47.9366 86.8946 46.6176C86.4229 45.9403 86.4229 45.9198 86.8946 45.2426C87.1579 44.8646 87.5031 44.1726 87.6616 43.7053C88.0599 42.5311 88.0476 33.4436 87.6459 32.0841C87.2401 30.7108 85.1691 28.6398 83.7959 28.2341C82.3134 27.7961 37.5864 27.7961 36.1039 28.2341C34.7306 28.6398 32.6596 30.7108 32.2539 32.0841C31.8521 33.4436 31.8399 42.5311 32.2381 43.7053C32.3966 44.1726 32.7419 44.8646 33.0051 45.2426C33.4769 45.9198 33.4769 45.9403 33.0051 46.6176C32.0866 47.9366 31.9499 48.8836 31.9499 53.9301C31.9499 58.9766 32.0866 59.9236 33.0051 61.2426C33.4786 61.9226 33.4784 61.9378 32.9669 62.6561C32.6826 63.0556 32.4499 63.5158 32.4499 63.6793C32.4499 64.1518 20.9914 63.8786 19.1961 63.3631C13.8826 61.8371 10.0031 59.0521 7.17236 54.7318C4.97011 51.3706 4.08586 48.2763 4.08586 43.9301C4.08586 38.2136 6.01461 33.5608 9.99611 29.6728C14.1391 25.6271 19.5449 23.6681 25.5716 24.0283C28.7344 24.2176 28.8379 24.1678 29.9549 21.9301C31.1044 19.6273 33.6451 16.2331 35.9491 13.9223C41.0774 8.77881 47.5169 5.50506 54.8669 4.30481C57.8449 3.81856 63.7929 3.98456 66.8249 4.63856ZM83.3361 32.5438C83.9449 33.1523 83.9499 33.1961 83.9499 37.9301C83.9499 42.6641 83.9449 42.7078 83.3361 43.3163L82.7226 43.9301H59.9499H37.1771L36.5636 43.3163C35.9549 42.7078 35.9499 42.6641 35.9499 37.9301C35.9499 33.1961 35.9549 33.1523 36.5636 32.5438L37.1771 31.9301H59.9499H82.7226L83.3361 32.5438ZM39.9499 37.9301V39.9301H51.9499H63.9499V37.9301V35.9301H51.9499H39.9499V37.9301ZM67.9499 37.9301V39.9301H69.9499H71.9499V37.9301V35.9301H69.9499H67.9499V37.9301ZM75.9499 37.9301V39.9301H77.9499H79.9499V37.9301V35.9301H77.9499H75.9499V37.9301ZM83.3361 48.5438C83.9449 49.1523 83.9499 49.1961 83.9499 53.9301C83.9499 58.6641 83.9449 58.7078 83.3361 59.3163L82.7226 59.9301H59.9499H37.1771L36.5636 59.3163C35.9549 58.7078 35.9499 58.6641 35.9499 53.9301C35.9499 49.1961 35.9549 49.1523 36.5636 48.5438L37.1771 47.9301H59.9499H82.7226L83.3361 48.5438ZM39.9499 53.9301V55.9301H51.9499H63.9499V53.9301V51.9301H51.9499H39.9499V53.9301ZM67.9499 53.9301V55.9301H69.9499H71.9499V53.9301V51.9301H69.9499H67.9499V53.9301ZM75.9499 53.9301V55.9301H77.9499H79.9499V53.9301V51.9301H77.9499H75.9499V53.9301ZM83.3361 64.5438C83.9449 65.1523 83.9499 65.1961 83.9499 69.93C83.9499 74.664 83.9449 74.7078 83.3361 75.3163L82.7226 75.93H59.9499H37.1771L36.5636 75.3163C35.9549 74.7078 35.9499 74.664 35.9499 69.93C35.9499 65.1961 35.9549 65.1523 36.5636 64.5438L37.1771 63.9301H59.9499H82.7226L83.3361 64.5438ZM39.9499 69.93V71.93H51.9499H63.9499V69.93V67.93H51.9499H39.9499V69.93ZM67.9499 69.93V71.93H69.9499H71.9499V69.93V67.93H69.9499H67.9499V69.93ZM75.9499 69.93V71.93H77.9499H79.9499V69.93V67.93H77.9499H75.9499V69.93ZM9.53211 86.271C12.1006 87.3443 12.7269 90.7118 10.7294 92.7095C7.92061 95.5183 3.31786 93.0025 4.05686 89.0623C4.49861 86.7088 7.23761 85.3123 9.53211 86.271ZM113.532 86.271C116.101 87.3443 116.727 90.7118 114.729 92.7095C111.921 95.5183 107.318 93.0025 108.057 89.0623C108.499 86.7088 111.238 85.3123 113.532 86.271ZM61.5499 104.279C62.6436 104.736 63.7119 106.165 63.8764 107.392C64.3836 111.173 59.8681 113.407 57.1704 110.71C54.0694 107.609 57.4919 102.583 61.5499 104.279ZM31.5499 108.279C32.6436 108.736 33.7119 110.165 33.8764 111.392C34.3836 115.173 29.8681 117.407 27.1704 114.71C24.0694 111.609 27.4919 106.583 31.5499 108.279ZM91.5499 108.279C92.6436 108.736 93.7119 110.165 93.8764 111.392C94.3836 115.173 89.8681 117.407 87.1703 114.71C84.0694 111.609 87.4919 106.583 91.5499 108.279Z" fill="white"/>
</svg>
