<svg class="svg-icon" style="width: 1em; height: 1em;vertical-align: middle;fill: currentColor;overflow: hidden;" viewBox="0 0 1024 1024" version="1.1" xmlns="http://www.w3.org/2000/svg"><path d="M290.496 659.328c-44.096 0-79.808 35.744-79.808 79.84s35.712 79.808 79.808 79.808c44.112 0 79.824-35.712 79.824-79.808S334.608 659.328 290.496 659.328zM290.496 765.696c-14.624 0-26.512-11.872-26.512-26.512 0-14.672 11.888-26.544 26.512-26.544 14.672 0 26.56 11.872 26.56 26.544C317.056 753.824 305.168 765.696 290.496 765.696z"  /><path d="M738.832 659.328c-44.08 0-79.808 35.744-79.808 79.84s35.728 79.808 79.808 79.808c44.112 0 79.824-35.712 79.824-79.808S782.944 659.328 738.832 659.328zM738.832 765.696c-14.64 0-26.528-11.872-26.528-26.512 0-14.672 11.888-26.544 26.528-26.544 14.656 0 26.544 11.872 26.544 26.544C765.376 753.824 753.488 765.696 738.832 765.696z"  /><path d="M901.552 649.568l-5.472 0L896.08 451.344c0-9.04-4.432-22.192-9.888-29.376l-90.672-119.216c-5.472-7.168-17.232-13.008-26.288-13.008l-147.376 0 0-68.368c0-9.056-7.312-16.368-16.368-16.368L196.464 205.008c-36.176 0-65.472 29.296-65.472 65.456l0 379.104L122.448 649.568c-8.832 0-16 7.152-16 16l0 57.232c0 9.024 7.328 16.368 16.352 16.368l55.872 0c0-61.664 50.16-111.824 111.808-111.824 61.664 0 111.824 50.16 111.824 111.824l224.704 0c0-61.664 50.16-111.824 111.808-111.824 61.664 0 111.824 50.16 111.824 111.824l50.512 0c9.056 0 16.368-7.344 16.368-16.368l0-57.232C917.552 656.72 910.4 649.568 901.552 649.568zM663.392 447.28l0-95.632 68.128 0c8.608 0 19.776 5.6 24.944 12.496l60.912 83.12L663.392 447.264z"  /></svg>