<svg width="35" height="35" viewBox="0 0 35 35" fill="none" xmlns="http://www.w3.org/2000/svg">
<path fill-rule="evenodd" clip-rule="evenodd" d="M16.0815 0.108321C13.9237 0.449415 11.8457 1.69832 10.5295 3.44504C8.01796 6.77809 8.17554 11.3182 10.913 14.4989C12.8053 16.6975 15.9713 17.8504 18.8119 17.3754C22.718 16.7223 25.6018 13.776 26.1569 9.87098C26.5864 6.85035 25.2457 3.63715 22.7809 1.77988C20.8674 0.338009 18.4476 -0.265741 16.0815 0.108321ZM18.9733 2.67152C19.753 2.88426 20.2854 3.1166 20.8734 3.50043C24.2021 5.6734 24.6997 10.3509 21.9001 13.1505C19.1005 15.9501 14.423 15.4525 12.2501 12.1238C11.5556 11.06 11.2803 10.0989 11.2803 8.73817C11.2803 7.38074 11.5562 6.41426 12.2442 5.36262C13.1747 3.9402 14.6192 2.96027 16.3159 2.60035C16.9421 2.46754 18.3655 2.50567 18.9733 2.67152ZM9.63624 20.0763C8.19718 20.2647 6.67897 20.792 5.41366 21.5428C2.2071 23.4454 0.209601 26.7582 0.0152256 30.496C-0.0185244 31.1454 0.00163174 31.487 0.0978817 31.8942C0.447335 33.3726 1.58851 34.5253 3.04194 34.8679C3.47858 34.9708 5.32304 34.9858 17.4878 34.9858C29.6526 34.9858 31.497 34.9708 31.9337 34.8679C33.7309 34.4442 34.9829 32.8275 34.9864 30.9257C34.9896 29.1844 34.4347 27.1419 33.5324 25.5741C31.9348 22.7981 29.3851 20.9444 26.1422 20.2014C25.4325 20.0388 25.2597 20.035 17.8003 20.02C13.5323 20.0114 9.94264 20.0362 9.63624 20.0763ZM25.1101 22.5719C27.6878 22.9305 30.0249 24.4996 31.3272 26.746C32.0432 27.981 32.4285 29.3344 32.4408 30.6574C32.448 31.4498 32.433 31.545 32.2604 31.7973C32.1569 31.9487 31.9486 32.1573 31.7974 32.2608L31.5227 32.4491H17.4878H3.45288L3.17819 32.2608C2.54069 31.824 2.38788 31.2539 2.56046 29.9567C2.73562 28.6409 3.21132 27.3724 3.94686 26.2599C4.31561 25.7022 5.27296 24.6883 5.84718 24.2475C6.98835 23.3712 8.57968 22.7214 10.0269 22.5408C10.6324 22.4653 24.5495 22.4939 25.1101 22.5719Z" fill="white"/>
</svg>
