<svg width="36" height="36" viewBox="0 0 36 36" fill="none" xmlns="http://www.w3.org/2000/svg">
<path fill-rule="evenodd" clip-rule="evenodd" d="M2.83441 0.131606C1.51387 0.486684 0.478086 1.53723 0.129727 2.87473C-0.0432422 3.53879 -0.0432422 12.7274 0.129727 13.3914C0.482617 14.7462 1.52051 15.7875 2.86801 16.1385C3.55246 16.3168 12.7239 16.3168 13.4083 16.1385C14.7558 15.7875 15.7937 14.7462 16.1466 13.3914C16.3196 12.7274 16.3196 3.53879 16.1466 2.87473C15.7937 1.51997 14.7558 0.478715 13.4083 0.1277C12.7457 -0.0448784 3.47801 -0.0415188 2.83441 0.131606ZM21.5844 0.131606C20.2639 0.486684 19.2281 1.53723 18.8797 2.87473C18.7068 3.53879 18.7068 12.7274 18.8797 13.3914C19.2326 14.7462 20.2705 15.7875 21.618 16.1385C22.3025 16.3168 31.4739 16.3168 32.1583 16.1385C33.5058 15.7875 34.5437 14.7462 34.8966 13.3914C35.0696 12.7274 35.0696 3.53879 34.8966 2.87473C34.5437 1.51997 33.5058 0.478715 32.1583 0.1277C31.4957 -0.0448784 22.228 -0.0415188 21.5844 0.131606ZM13.2503 2.77231C13.7851 3.18036 13.7691 3.00309 13.7454 8.24629C13.7245 12.8739 13.721 12.9696 13.563 13.1812C13.4744 13.2998 13.3049 13.4693 13.1863 13.5579C12.9747 13.7159 12.8789 13.7194 8.25137 13.7404C3.00824 13.764 3.18543 13.78 2.77738 13.2452L2.55223 12.95L2.52926 8.33457C2.51668 5.79598 2.52684 3.60582 2.55191 3.46739C2.60863 3.15426 2.93683 2.75536 3.25144 2.61707C3.44355 2.53262 4.40715 2.51567 8.22238 2.52973L12.9551 2.54715L13.2503 2.77231ZM32.0003 2.77231C32.5351 3.18036 32.5191 3.00309 32.4954 8.24629C32.4745 12.8739 32.471 12.9696 32.313 13.1812C32.2244 13.2998 32.0549 13.4693 31.9363 13.5579C31.7247 13.7159 31.6289 13.7194 27.0014 13.7404C21.7582 13.764 21.9354 13.78 21.5274 13.2452L21.3022 12.95L21.2793 8.33457C21.2667 5.79598 21.2768 3.60582 21.3019 3.46739C21.3586 3.15426 21.6868 2.75536 22.0014 2.61707C22.1935 2.53262 23.1571 2.51567 26.9724 2.52973L31.7051 2.54715L32.0003 2.77231ZM2.83441 18.8816C1.51387 19.2367 0.478086 20.2872 0.129727 21.6247C-0.0432422 22.2888 -0.0432422 31.4774 0.129727 32.1414C0.482617 33.4962 1.52051 34.5375 2.86801 34.8885C3.55246 35.0667 12.7239 35.0667 13.4083 34.8885C14.7558 34.5375 15.7937 33.4962 16.1466 32.1414C16.3196 31.4774 16.3196 22.2888 16.1466 21.6247C15.7937 20.27 14.7558 19.2287 13.4083 18.8777C12.7457 18.7051 3.47801 18.7085 2.83441 18.8816ZM21.5844 18.8816C20.2639 19.2367 19.2281 20.2872 18.8797 21.6247C18.7068 22.2888 18.7068 31.4774 18.8797 32.1414C19.2326 33.4962 20.2705 34.5375 21.618 34.8885C22.3025 35.0667 31.4739 35.0667 32.1583 34.8885C33.5058 34.5375 34.5437 33.4962 34.8966 32.1414C35.0696 31.4774 35.0696 22.2888 34.8966 21.6247C34.5437 20.27 33.5058 19.2287 32.1583 18.8777C31.4957 18.7051 22.228 18.7085 21.5844 18.8816ZM13.2503 21.5223C13.7851 21.9303 13.7691 21.7531 13.7454 26.9963C13.7245 31.6239 13.721 31.7196 13.563 31.9312C13.4744 32.0498 13.3049 32.2193 13.1863 32.3079C12.9747 32.4659 12.8789 32.4694 8.25137 32.4903C3.00824 32.514 3.18543 32.53 2.77738 31.9952L2.55223 31.7L2.52926 27.0846C2.51668 24.546 2.52684 22.3558 2.55191 22.2174C2.60863 21.9043 2.93683 21.5053 3.25144 21.3671C3.44355 21.2826 4.40715 21.2657 8.22238 21.2797L12.9551 21.2971L13.2503 21.5223ZM32.0003 21.5223C32.5351 21.9303 32.5191 21.7531 32.4954 26.9963C32.4745 31.6239 32.471 31.7196 32.313 31.9312C32.2244 32.0498 32.0549 32.2193 31.9363 32.3079C31.7247 32.4659 31.6289 32.4694 27.0014 32.4903C21.7582 32.514 21.9354 32.53 21.5274 31.9952L21.3022 31.7L21.2793 27.0846C21.2667 24.546 21.2768 22.3558 21.3019 22.2174C21.3586 21.9043 21.6868 21.5053 22.0014 21.3671C22.1935 21.2826 23.1571 21.2657 26.9724 21.2797L31.7051 21.2971L32.0003 21.5223Z" fill="white"/>
</svg>
